<svg width="30" height="30" viewBox="0 0 30 30" fill="none" xmlns="http://www.w3.org/2000/svg">
<path fill-rule="evenodd" clip-rule="evenodd" d="M13.4137 23.3768L13.4137 10.5492L9.71871 14.328C9.09899 14.9643 8.09088 14.9665 7.46904 14.3323C7.15705 14.0163 7 13.5986 7 13.1831C7 12.7697 7.15493 12.3542 7.46479 12.0382L13.8721 5.48047L13.8827 5.47181C14.0334 5.31815 14.2074 5.20344 14.3942 5.12336C14.581 5.04329 14.789 5 15.0054 5C15.224 5 15.4299 5.04329 15.6188 5.12336C15.8034 5.20344 15.9775 5.32031 16.1281 5.47397L16.1388 5.48263L22.5376 12.0382C23.1552 12.6745 23.1552 13.7004 22.5312 14.3345C21.9073 14.9665 20.9013 14.9643 20.2794 14.328L16.5972 10.5557L16.5972 23.3768C16.5972 24.2728 15.8841 25 15.0054 25C14.1268 25 13.4137 24.2728 13.4137 23.3768Z" fill="#2B313D"/>
</svg>
