<svg width="30" height="30" viewBox="0 0 30 30" fill="none" xmlns="http://www.w3.org/2000/svg">
<path fill-rule="evenodd" clip-rule="evenodd" d="M22.7638 16.4525C22.7638 16.97 22.3438 17.39 21.8263 17.39C21.3088 17.39 20.8888 16.97 20.8888 16.4525V13.5462C20.8888 13.0287 21.3088 12.6087 21.8263 12.6087C22.3438 12.6087 22.7638 13.0287 22.7638 13.5462V16.4525ZM19.35 18.8812C19.35 19.3988 18.93 19.8187 18.4125 19.8187C17.895 19.8187 17.475 19.3988 17.475 18.8812V11.1188C17.475 10.6013 17.895 10.1813 18.4125 10.1813C18.93 10.1813 19.35 10.6013 19.35 11.1188V18.8812ZM15.9375 21.1287C15.9375 21.6462 15.5175 22.0662 15 22.0662C14.4825 22.0662 14.0625 21.6462 14.0625 21.1287V8.8725C14.0625 8.355 14.4825 7.935 15 7.935C15.5175 7.935 15.9375 8.355 15.9375 8.8725V21.1287ZM12.5225 18.8812C12.5225 19.3988 12.1025 19.8187 11.585 19.8187C11.0675 19.8187 10.6475 19.3988 10.6475 18.8812V11.1188C10.6475 10.6013 11.0675 10.1813 11.585 10.1813C12.1025 10.1813 12.5225 10.6013 12.5225 11.1188V18.8812ZM9.10875 16.4525C9.10875 16.97 8.68875 17.39 8.17125 17.39C7.65375 17.39 7.23375 16.97 7.23375 16.4525V13.5475C7.23375 13.03 7.65375 12.61 8.17125 12.61C8.68875 12.61 9.10875 13.03 9.10875 13.5475V16.4525ZM19.9662 3.125H10.0325C5.9 3.125 3.125 5.77875 3.125 9.72875V20.2725C3.125 24.2213 5.9 26.875 10.0325 26.875H19.9662C24.0975 26.875 26.875 24.2213 26.875 20.2725V9.72875C26.875 5.77875 24.0975 3.125 19.9662 3.125Z" fill="#2B313D"/>
</svg>
