<svg width="30" height="30" viewBox="0 0 30 30" fill="none" xmlns="http://www.w3.org/2000/svg">
<path d="M15.8305 3C16.7061 3 17.499 3.504 17.9368 4.248C18.1498 4.608 18.2918 5.052 18.2563 5.52C18.2326 5.88 18.3391 6.24 18.5284 6.576C19.1319 7.596 20.4691 7.98 21.5104 7.404C22.6819 6.708 24.161 7.128 24.8355 8.316L25.6284 9.732C26.3147 10.92 25.936 12.444 24.7527 13.128C23.7469 13.74 23.3919 15.096 23.9954 16.128C24.1847 16.452 24.3977 16.728 24.729 16.896C25.1432 17.124 25.4627 17.484 25.6875 17.844C26.1253 18.588 26.0898 19.5 25.6639 20.304L24.8355 21.744C24.3977 22.512 23.5812 22.992 22.7411 22.992C22.3269 22.992 21.8654 22.872 21.4867 22.632C21.1791 22.428 20.8241 22.356 20.4454 22.356C19.2739 22.356 18.2918 23.352 18.2563 24.54C18.2563 25.92 17.1676 27 15.8068 27H14.1975C12.8248 27 11.7362 25.92 11.7362 24.54C11.7125 23.352 10.7304 22.356 9.55888 22.356C9.16839 22.356 8.81339 22.428 8.51756 22.632C8.1389 22.872 7.66557 22.992 7.26324 22.992C6.41125 22.992 5.59476 22.512 5.15693 21.744L4.34044 20.304C3.90262 19.524 3.87895 18.588 4.31678 17.844C4.50611 17.484 4.8611 17.124 5.26343 16.896C5.59476 16.728 5.80776 16.452 6.00892 16.128C6.60058 15.096 6.24559 13.74 5.23977 13.128C4.06828 12.444 3.68962 10.92 4.36411 9.732L5.15693 8.316C5.84326 7.128 7.31057 6.708 8.49389 7.404C9.52338 7.98 10.8605 7.596 11.464 6.576C11.6534 6.24 11.7599 5.88 11.7362 5.52C11.7125 5.052 11.8427 4.608 12.0675 4.248C12.5053 3.504 13.2982 3.024 14.162 3H15.8305ZM15.014 11.616C13.1562 11.616 11.6534 13.128 11.6534 15.012C11.6534 16.896 13.1562 18.396 15.014 18.396C16.8718 18.396 18.3391 16.896 18.3391 15.012C18.3391 13.128 16.8718 11.616 15.014 11.616Z" fill="#2B313D"/>
</svg>
