<svg width="30" height="30" viewBox="0 0 30 30" fill="none" xmlns="http://www.w3.org/2000/svg">
<path fill-rule="evenodd" clip-rule="evenodd" d="M16.6544 15.9064L16.5038 15.9907C15.8424 16.3624 15.6072 16.5483 15.6119 16.8532C15.6165 17.3312 15.2331 17.7237 14.7535 17.7307H14.7431C14.267 17.7307 13.8801 17.3496 13.8743 16.8751C13.8558 15.4884 14.9806 14.858 15.6524 14.4816L15.8019 14.3973C16.3926 14.0705 16.6764 13.6422 16.6764 13.081C16.6764 12.1562 15.9246 11.4045 15.0014 11.4045C14.0793 11.4045 13.3299 12.1562 13.3299 13.081C13.3299 13.559 12.9406 13.947 12.4611 13.947C11.9815 13.947 11.5923 13.559 11.5923 13.081C11.5923 11.2013 13.1214 9.67261 15.0014 9.67261C16.8826 9.67261 18.414 11.2013 18.414 13.081C18.414 14.2772 17.7885 15.2806 16.6544 15.9064ZM14.8914 20.3551C14.8439 20.362 14.7952 20.3666 14.7477 20.3666C14.3295 20.3666 13.9623 20.0664 13.8905 19.6427C13.8129 19.1716 14.128 18.704 14.6029 18.6255C15.0802 18.547 15.5204 18.846 15.5991 19.3171L15.6061 19.3575C15.6837 19.8298 15.3651 20.2766 14.8914 20.3551ZM22.7846 7.22137C20.7076 5.14422 17.9437 4 15.0014 4C12.0602 4 9.29634 5.14422 7.21935 7.22137C3.97007 10.4728 3.08391 15.4619 5.00336 19.6092C5.23156 20.1773 5.37056 20.5456 5.37056 20.8701C5.37056 21.2545 5.20607 21.7349 5.04737 22.199C4.74156 23.0985 4.39289 24.118 5.13889 24.8639C5.88836 25.6132 6.91238 25.2599 7.8136 24.9505C8.27464 24.7911 8.75073 24.6283 9.12837 24.626C9.4643 24.626 9.88827 24.7957 10.3783 24.9932C11.8494 25.6709 13.4191 26 14.9782 26C17.8464 26 20.681 24.8858 22.7846 22.7809C27.0718 18.4916 27.0718 11.5119 22.7846 7.22137Z" fill="#2B313D"/>
</svg>
