<svg width="30" height="30" viewBox="0 0 30 30" fill="none" xmlns="http://www.w3.org/2000/svg">
<path fill-rule="evenodd" clip-rule="evenodd" d="M20.65 12.0375C20.1213 12.7275 19.3412 13.1237 18.5112 13.1237C17.68 13.1237 16.9 12.7275 16.3713 12.0375C16.055 11.6263 16.1337 11.0375 16.545 10.7225C16.9537 10.4075 17.545 10.4862 17.8587 10.8962C17.96 11.0275 18.1775 11.2487 18.5112 11.2487C18.8438 11.2487 19.0613 11.0275 19.1637 10.8962C19.4788 10.4862 20.0675 10.4075 20.4762 10.7225C20.8875 11.0375 20.9663 11.6263 20.65 12.0375ZM18.7775 19.59H11.3825C10.865 19.59 10.445 19.17 10.445 18.6525C10.445 18.1337 10.865 17.715 11.3825 17.715H18.7775C19.295 17.715 19.715 18.1337 19.715 18.6525C19.715 19.17 19.295 19.59 18.7775 19.59ZM9.35125 12.0375C9.035 11.6263 9.11375 11.0375 9.525 10.7225C9.935 10.4075 10.5238 10.4862 10.8375 10.8962C10.9388 11.0275 11.1575 11.2487 11.49 11.2487C11.8225 11.2487 12.0412 11.0275 12.1425 10.8962C12.4562 10.4862 13.0463 10.4075 13.4563 10.7225C13.8675 11.0375 13.9462 11.6263 13.63 12.0375C13.1013 12.7275 12.3213 13.1237 11.49 13.1237C10.66 13.1237 9.88 12.7275 9.35125 12.0375ZM20.2712 3.125H9.72875C5.78 3.125 3.125 5.9 3.125 10.0325V19.9662C3.125 24.0987 5.78 26.875 9.72875 26.875H20.27C24.22 26.875 26.875 24.0987 26.875 19.9662V10.0325C26.875 5.9 24.2212 3.125 20.2712 3.125Z" fill="#2B313D"/>
</svg>
