<svg width="30" height="30" viewBox="0 0 30 30" fill="none" xmlns="http://www.w3.org/2000/svg">
<path fill-rule="evenodd" clip-rule="evenodd" d="M22.9781 16.8959C23.7064 16.9446 24.3212 17.2873 24.7091 17.8477C25.3297 18.7451 25.2927 21.6977 24.7902 22.4874C24.3907 23.1787 23.6323 23.6256 21.1335 23.6523C21.0979 23.6523 21.0623 23.6526 21.027 23.6529C20.9923 23.6531 20.9578 23.6534 20.924 23.6534C18.5862 23.6534 17.8521 23.2273 17.4375 22.543C16.9315 21.7811 16.8366 18.8296 17.4375 17.923C17.8057 17.3649 18.3963 17.0129 19.1477 16.9006L19.0864 10.7568C18.3592 10.7093 17.7432 10.3666 17.353 9.80267C16.7335 8.90993 16.7694 5.95729 17.2719 5.16414C17.6703 4.47287 18.4275 4.02592 20.9297 4.00045C23.4621 3.98424 24.202 4.40687 24.6246 5.11087C25.1306 5.86698 25.2278 8.82077 24.6246 9.72972C24.2483 10.2994 23.6404 10.6549 22.8681 10.7579L22.9781 16.8959ZM7.45477 6.99458C7.95035 6.37279 8.76319 6.04395 11.2446 6.39943C13.7224 6.75258 14.4148 7.29448 14.7286 8.05522C15.1142 8.88195 14.7622 11.8137 14.0316 12.6208C13.573 13.1256 12.9431 13.3827 12.1385 13.3722L11.3163 19.4547C12.0273 19.611 12.5842 20.0429 12.8852 20.6577C13.3635 21.6408 12.8794 24.5552 12.2623 25.2592C11.9069 25.705 11.3858 26.0002 10.2036 26.0002C9.7393 26.0002 9.17077 25.9551 8.47024 25.8544C5.9935 25.5024 5.30108 24.9605 4.98729 24.1997C4.60171 23.3718 4.95255 20.4389 5.68666 19.6341C6.13129 19.1409 6.76698 18.8803 7.52424 18.8803H7.53119L8.39845 12.7979C7.68519 12.6382 7.1294 12.2063 6.83182 11.5949C6.35245 10.6142 6.83529 7.69974 7.45477 6.99458Z" fill="#2B313D"/>
</svg>
