<svg width="30" height="30" viewBox="0 0 30 30" fill="none" xmlns="http://www.w3.org/2000/svg">
<path fill-rule="evenodd" clip-rule="evenodd" d="M6.05591 12.3686C6.05591 6.90416 11.141 2.64834 16.8673 3.78485C20.2728 4.46695 23.0326 7.1476 23.747 10.5005C24.5563 14.3198 22.7989 17.8779 19.8534 19.7415C19.8357 19.7406 19.8178 19.74 19.8 19.74H15.8997V14.4221L17.8838 12.4379C18.2353 12.0864 18.2353 11.5166 17.8838 11.1651C17.5323 10.8136 16.9626 10.8136 16.6111 11.1651L14.9988 12.7773L13.3866 11.1651C13.0351 10.8136 12.4652 10.8136 12.1137 11.1651C11.7622 11.5166 11.7622 12.0864 12.1137 12.4379L14.0997 14.4239V19.74H10.2C10.1914 19.74 10.1828 19.7401 10.1742 19.7403C7.70066 18.194 6.05591 15.4751 6.05591 12.3686ZM11.1243 21.54H18.8894V22.5834C18.8894 24.6949 17.1323 26.4 15.0074 26.4C12.8814 26.4 11.1243 24.695 11.1243 22.5834V21.54Z" fill="#2B313D"/>
</svg>
