<svg width="30" height="30" viewBox="0 0 30 30" fill="none" xmlns="http://www.w3.org/2000/svg">
<path fill-rule="evenodd" clip-rule="evenodd" d="M19.0312 13.1263C18.36 13.1263 17.8125 12.58 17.8125 11.9075C17.81 11.5887 17.9362 11.28 18.1663 11.0487C18.3962 10.8162 18.7025 10.6887 19.03 10.6887C19.7025 10.6887 20.2513 11.235 20.2513 11.9075C20.2513 12.58 19.7038 13.1263 19.0312 13.1263ZM19.2687 20.0113C19.1 20.1413 18.8987 20.205 18.6987 20.205C18.4175 20.205 18.14 20.0788 17.955 19.8388C17.2038 18.8638 16.1275 18.3037 15 18.3037C13.8725 18.3037 12.7963 18.8638 12.0463 19.8388C11.7325 20.2488 11.1438 20.3275 10.7312 20.0113C10.3212 19.695 10.245 19.1075 10.56 18.6962C11.6663 17.255 13.285 16.4287 15 16.4287C16.7137 16.4287 18.3325 17.255 19.4412 18.6962C19.7563 19.1062 19.68 19.695 19.2687 20.0113ZM9.6875 11.9075C9.685 11.5887 9.81125 11.28 10.0413 11.0487C10.2712 10.8162 10.5775 10.6887 10.905 10.6887C11.5775 10.6887 12.1263 11.235 12.1263 11.9075C12.1263 12.58 11.5788 13.1263 10.9063 13.1263C10.235 13.1263 9.6875 12.58 9.6875 11.9075ZM20.2712 3.125H9.72875C5.77875 3.125 3.125 5.90125 3.125 10.0325V19.9675C3.125 24.0987 5.77875 26.875 9.72875 26.875H20.27C24.22 26.875 26.875 24.0987 26.875 19.9675V10.0325C26.875 5.90125 24.2212 3.125 20.2712 3.125Z" fill="#2B313D"/>
</svg>
