<svg width="30" height="30" viewBox="0 0 30 30" fill="none" xmlns="http://www.w3.org/2000/svg">
<path fill-rule="evenodd" clip-rule="evenodd" d="M2.37941 27.6213C2.59832 27.8417 2.88619 27.9511 3.17407 27.9511C3.46195 27.9511 3.74983 27.8417 3.96874 27.6213L7.3071 24.2828C7.38623 24.2228 7.45844 24.1513 7.52107 24.0688L27.6198 3.97018C28.0591 3.53087 28.0591 2.81867 27.6198 2.37935C27.1805 1.94004 26.4698 1.94004 26.0305 2.37935L23.2145 5.19551C20.7029 3.71355 17.879 2.93425 14.9936 2.93425C6.68718 2.93425 0 9.53747 0 15.0041C0 17.9276 1.8831 21.1609 4.88873 23.5225L2.37941 26.0319C1.94009 26.4713 1.94009 27.182 2.37941 27.6213ZM6.49277 21.9183C3.92406 19.9766 2.24905 17.2825 2.24905 15.0041C2.24905 10.584 8.12957 5.18331 14.9936 5.18331C17.2827 5.18331 19.5289 5.75513 21.5635 6.84657L18.2748 10.1354C17.3124 9.48724 16.1643 9.12903 14.9965 9.12903H14.983C13.4161 9.13203 11.9453 9.74527 10.8387 10.8548C9.7337 11.9643 9.12646 13.4382 9.13096 14.9975C9.12643 16.1673 9.48349 17.3164 10.1335 18.2774L6.49277 21.9183ZM11.7722 16.6384L16.6353 11.7751C16.1304 11.5173 15.5665 11.3781 14.995 11.3781H14.9875C14.0204 11.3796 13.1132 11.7574 12.4325 12.4411C11.7519 13.1263 11.377 14.0334 11.38 14.999C11.3773 15.5725 11.5156 16.1355 11.7722 16.6384ZM14.9912 27.0752C13.5713 27.0752 12.1454 26.8803 10.748 26.4935C10.1497 26.3285 9.79889 25.7093 9.96382 25.1111C10.1288 24.5113 10.7525 24.162 11.3477 24.3269C12.5488 24.6582 13.7737 24.8262 14.9912 24.8262C21.8628 24.8262 27.7509 19.4255 27.7509 15.0038C27.7509 13.5719 27.0851 11.9391 25.8781 10.4098C25.4943 9.92251 25.5783 9.2148 26.0656 8.82947C26.5529 8.44563 27.2606 8.52809 27.6444 9.01539C29.1633 10.9421 29.9999 13.0681 29.9999 15.0038C29.9999 20.472 23.3052 27.0752 14.9912 27.0752ZM14.7438 19.8584C14.8442 20.3997 15.3166 20.7791 15.8488 20.7791C15.9163 20.7791 15.9853 20.7731 16.0527 20.7596C18.4382 20.3217 20.3289 18.428 20.7608 16.0441C20.8717 15.4323 20.4654 14.8476 19.8551 14.7366C19.2419 14.6287 18.6586 15.0305 18.5477 15.6422C18.2823 17.1116 17.1158 18.2781 15.6479 18.5495C15.0362 18.6604 14.6313 19.2482 14.7438 19.8584Z" fill="#2B313D" fill-opacity="0.54"/>
</svg>
