<svg width="82" height="82" viewBox="0 0 82 82" fill="none" xmlns="http://www.w3.org/2000/svg">
<rect width="82" height="82" rx="16" fill="#A2F4FF"/>
<path fill-rule="evenodd" clip-rule="evenodd" d="M47 82L35 82L35 66.6C35 62.0206 34.9953 58.9469 34.8019 56.5798C34.6143 54.2828 34.2792 53.1846 33.9101 52.4601C32.9513 50.5785 31.4215 49.0487 29.5399 48.0899C28.8154 47.7208 27.7172 47.3857 25.4202 47.1981C23.0531 47.0047 19.9794 47 15.4 47L-1.06892e-05 47L-1.17383e-05 35L15.6434 35C19.9167 34.9999 23.4835 34.9998 26.3974 35.2379C29.4364 35.4862 32.2897 36.0231 34.9878 37.3979C39.1273 39.5071 42.4929 42.8726 44.6021 47.0122C45.9769 49.7103 46.5138 52.5636 46.7621 55.6026C47.0002 58.5165 47.0001 62.0833 47 66.3565L47 82Z" fill="#EED1FF"/>
</svg>
