<svg width="30" height="30" viewBox="0 0 30 30" fill="none" xmlns="http://www.w3.org/2000/svg">
<path fill-rule="evenodd" clip-rule="evenodd" d="M6.91606 12.095C6.99786 12.095 7.08088 12.0779 7.1578 12.045L9.00133 11.2502L11.5127 13.0901C11.6751 13.2109 11.8655 13.2683 12.0524 13.2683C12.3344 13.2683 12.6128 13.1377 12.791 12.8935C13.0914 12.4857 13.0022 11.9131 12.5945 11.614L10.0635 9.75948L10.2076 7.76822C10.2234 7.54969 10.1209 7.33969 9.94019 7.2176L6.63648 4.99682C6.45457 4.87473 6.22382 4.85764 6.02726 4.95409C5.83192 5.04932 5.70251 5.24221 5.68541 5.45831L5.51693 7.76456L3.36696 8.70342C3.16307 8.79132 3.02389 8.98544 3.00313 9.20764C2.98238 9.42862 3.08493 9.64472 3.27051 9.76925L6.57544 11.9913C6.67799 12.0608 6.79642 12.095 6.91606 12.095ZM26.411 9.25697C25.6272 7.32187 24.1158 5.91053 22.155 5.28055C21.0892 4.93748 19.9318 4.8569 18.8049 5.0437C17.7867 5.2134 16.8613 5.82018 16.0824 6.38667C15.3315 5.84338 14.3853 5.22805 13.3622 5.05469C12.592 4.92464 11.8048 4.92804 11.0365 5.05226C10.727 5.1023 10.6589 5.49326 10.9191 5.66811L10.9619 5.69687C11.6872 6.18522 12.0974 7.02641 12.0351 7.90057L11.9522 9.03647C11.943 9.16226 11.9992 9.28394 12.1009 9.35852L13.4978 10.3826C14.5843 11.1799 14.82 12.7084 14.024 13.7962C13.5454 14.4482 12.8031 14.7937 12.051 14.7937C11.5504 14.7937 11.045 14.6399 10.6103 14.3212L9.25817 13.3303C9.15343 13.2537 9.0159 13.238 8.89667 13.2896L7.88288 13.7266C7.57278 13.8609 7.24436 13.9256 6.91594 13.9256C6.53987 13.9256 6.20809 13.8299 5.89445 13.6817C5.61427 13.5492 5.27653 13.7539 5.33236 14.0587C5.39728 14.4131 5.48311 14.7628 5.5925 15.1038C7.45923 21.0873 15.4841 24.8916 15.8248 25.0503C15.9066 25.0882 15.9945 25.1065 16.0824 25.1065C16.1703 25.1065 16.2582 25.0882 16.34 25.0503C16.4707 24.9883 17.7634 24.3735 19.4018 23.2937C19.5767 23.1786 19.6135 22.9405 19.5143 22.7562C19.3304 22.4147 19.2239 22.0261 19.2249 21.6099C19.2258 21.351 19.2702 21.1032 19.3479 20.8699C19.4031 20.7039 19.3575 20.516 19.2163 20.4127L18.9685 20.2315C17.8807 19.4355 17.6427 17.9069 18.4399 16.8191C19.2347 15.7301 20.7632 15.4908 21.8523 16.2905L22.0458 16.4317C22.19 16.537 22.3873 16.5204 22.5289 16.4117C22.7429 16.2475 22.9865 16.1148 23.2599 16.0292C24.0344 15.7888 24.8383 15.9523 25.4442 16.4015C25.6507 16.5546 25.9647 16.5192 26.0768 16.2879C26.2621 15.9057 26.4274 15.5145 26.56 15.1099C27.1948 13.1369 27.1411 11.059 26.411 9.25697ZM25.2523 18.5273L25.9067 21.4293C25.908 21.4341 25.9075 21.4388 25.907 21.4436C25.9066 21.4474 25.9061 21.4512 25.9067 21.455C25.925 21.5453 25.9201 21.6356 25.9103 21.7272C25.9088 21.7408 25.9092 21.7542 25.9097 21.7675C25.9103 21.7852 25.9109 21.8026 25.9067 21.82C25.8847 21.9262 25.8383 22.0263 25.7773 22.1216C25.7735 22.1272 25.7714 22.1338 25.7692 22.1406C25.7671 22.147 25.765 22.1535 25.7614 22.1594L25.759 22.1606C25.7578 22.1623 25.7572 22.1643 25.7566 22.1662C25.756 22.1683 25.7554 22.1703 25.7541 22.1716C25.7424 22.1874 25.7273 22.1977 25.7122 22.2081C25.7004 22.2162 25.6886 22.2244 25.6784 22.2351C25.61 22.3108 25.538 22.3804 25.4489 22.4292C25.4184 22.4452 25.3865 22.4544 25.3543 22.4637C25.3374 22.4685 25.3204 22.4734 25.3036 22.4793C25.2833 22.4862 25.2637 22.4944 25.2442 22.5026C25.205 22.5191 25.1661 22.5354 25.1229 22.5403L22.1464 22.898C22.1097 22.9017 22.0719 22.9041 22.0365 22.9041C21.7154 22.9041 21.4151 22.7357 21.2502 22.4561C21.0634 22.1435 21.0805 21.7528 21.2917 21.4562L21.9547 20.5259L19.8694 19.001C19.4616 18.7019 19.3725 18.1293 19.6716 17.7203C19.9695 17.3137 20.5397 17.2222 20.9511 17.5225L23.0181 19.0339L23.6139 18.1976C23.8226 17.9034 24.1816 17.7618 24.5405 17.8314C24.8933 17.9022 25.1729 18.1757 25.2523 18.5273Z" fill="#2B313D"/>
</svg>
