<svg width="30" height="30" viewBox="0 0 30 30" fill="none" xmlns="http://www.w3.org/2000/svg">
<path fill-rule="evenodd" clip-rule="evenodd" d="M14.2339 9.91728C14.8746 7.59965 16.9483 6 19.3085 6H24.8996C25.5071 6 25.9996 6.50201 25.9996 7.12129C25.9996 7.74055 25.5071 8.24257 24.8996 8.24257H19.3085C17.9333 8.24257 16.7248 9.17466 16.3512 10.5258L13.0524 22.4498C12.5013 24.4385 9.77151 24.5402 9.08254 22.5945L6.89901 16.416C6.57327 15.4959 5.80639 14.8121 4.86886 14.6066C4.27495 14.4763 3.89707 13.88 4.02483 13.2745C4.15259 12.6691 4.73763 12.2839 5.33154 12.4142C7.0118 12.7826 8.38551 14.0076 8.96844 15.6551L11.0315 21.4925L14.2339 9.91728ZM19.2379 15.0523C19.7268 14.6847 20.4154 14.7908 20.776 15.2891L22.3953 17.5275L24.0147 15.2891C24.3753 14.7908 25.064 14.6847 25.5529 15.0523C26.0417 15.4199 26.1458 16.1218 25.7852 16.6202L23.762 19.4167L25.7852 22.2131C26.1458 22.7115 26.0417 23.4135 25.5529 23.7811C25.064 24.1486 24.3753 24.0426 24.0147 23.5441L22.3953 21.3058L20.776 23.5441C20.4154 24.0426 19.7268 24.1486 19.2379 23.7811C18.7489 23.4135 18.6449 22.7115 19.0054 22.2131L21.0286 19.4167L19.0054 16.6202C18.6449 16.1218 18.7489 15.4199 19.2379 15.0523Z" fill="#2B313D"/>
<path d="M14.2339 9.91728C14.8746 7.59965 16.9483 6 19.3085 6H24.8996C25.5071 6 25.9996 6.50201 25.9996 7.12129C25.9996 7.74055 25.5071 8.24257 24.8996 8.24257H19.3085C17.9333 8.24257 16.7248 9.17466 16.3512 10.5258L13.0524 22.4498C12.5013 24.4385 9.77151 24.5402 9.08254 22.5945L6.89901 16.416C6.57327 15.4959 5.80639 14.8121 4.86886 14.6066C4.27495 14.4763 3.89707 13.88 4.02483 13.2745C4.15259 12.6691 4.73763 12.2839 5.33154 12.4142C7.0118 12.7826 8.38551 14.0076 8.96844 15.6551L11.0315 21.4925L14.2339 9.91728ZM14.2339 9.91728V9.91728ZM19.2379 15.0523C19.7268 14.6847 20.4154 14.7908 20.776 15.2891L22.3953 17.5275L24.0147 15.2891C24.3753 14.7908 25.064 14.6847 25.5529 15.0523C26.0417 15.4199 26.1458 16.1218 25.7852 16.6202L23.762 19.4167L25.7852 22.2131C26.1458 22.7115 26.0417 23.4135 25.5529 23.7811C25.064 24.1486 24.3753 24.0426 24.0147 23.5441L22.3953 21.3058L20.776 23.5441C20.4154 24.0426 19.7268 24.1486 19.2379 23.7811C18.7489 23.4135 18.6449 22.7115 19.0054 22.2131L21.0286 19.4167L19.0054 16.6202C18.6449 16.1218 18.7489 15.4199 19.2379 15.0523Z" stroke="#2B313D" stroke-width="0.5"/>
</svg>
