<svg width="30" height="30" viewBox="0 0 30 30" fill="none" xmlns="http://www.w3.org/2000/svg">
<mask id="path-1-inside-1_1732_4999" fill="white">
<path fill-rule="evenodd" clip-rule="evenodd" d="M15 28.5C22.4558 28.5 28.5 22.4558 28.5 15C28.5 7.54416 22.4558 1.5 15 1.5C7.54416 1.5 1.5 7.54416 1.5 15C1.5 22.4558 7.54416 28.5 15 28.5ZM15 30C23.2843 30 30 23.2843 30 15C30 6.71573 23.2843 0 15 0C6.71573 0 0 6.71573 0 15C0 23.2843 6.71573 30 15 30Z"/>
</mask>
<path d="M27.5 15C27.5 21.9036 21.9036 27.5 15 27.5V29.5C23.0081 29.5 29.5 23.0081 29.5 15H27.5ZM15 2.5C21.9036 2.5 27.5 8.09644 27.5 15H29.5C29.5 6.99187 23.0081 0.5 15 0.5V2.5ZM2.5 15C2.5 8.09644 8.09644 2.5 15 2.5V0.5C6.99187 0.5 0.5 6.99187 0.5 15H2.5ZM15 27.5C8.09644 27.5 2.5 21.9036 2.5 15H0.5C0.5 23.0081 6.99187 29.5 15 29.5V27.5ZM29 15C29 22.732 22.732 29 15 29V31C23.8366 31 31 23.8366 31 15H29ZM15 1C22.732 1 29 7.26801 29 15H31C31 6.16344 23.8366 -1 15 -1V1ZM1 15C1 7.26801 7.26801 1 15 1V-1C6.16344 -1 -1 6.16344 -1 15H1ZM15 29C7.26801 29 1 22.732 1 15H-1C-1 23.8366 6.16344 31 15 31V29Z" fill="#2B313D" fill-opacity="0.54" mask="url(#path-1-inside-1_1732_4999)"/>
<path fill-rule="evenodd" clip-rule="evenodd" d="M16.1784 15.0002L20.5892 10.5894C20.915 10.2636 20.915 9.7369 20.5892 9.41106C20.2634 9.08523 19.7367 9.08523 19.4109 9.41106L15 13.8219L10.5892 9.41106C10.2634 9.08523 9.73671 9.08523 9.41088 9.41106C9.08505 9.7369 9.08505 10.2636 9.41088 10.5894L13.8217 15.0002L9.41088 19.4111C9.08505 19.7369 9.08505 20.2635 9.41088 20.5894C9.57338 20.7519 9.78671 20.8335 10 20.8335C10.2134 20.8335 10.4267 20.7519 10.5892 20.5894L15 16.1786L19.4109 20.5894C19.5734 20.7519 19.7867 20.8335 20 20.8335C20.2134 20.8335 20.4267 20.7519 20.5892 20.5894C20.915 20.2635 20.915 19.7369 20.5892 19.4111L16.1784 15.0002Z" fill="#2B313D" fill-opacity="0.54"/>
<path d="M15.8248 14.6466L15.4713 15.0002L15.8248 15.3537L20.2356 19.7647L20.2357 19.7647C20.3662 19.8952 20.3662 20.1052 20.2356 20.2358C20.1705 20.301 20.0859 20.3335 20 20.3335C19.9142 20.3335 19.8296 20.301 19.7644 20.2358L19.4109 20.5894L19.7644 20.2358L15.3536 15.825L15 15.4715L14.6465 15.825L10.2357 20.2358L10.5892 20.5894L10.2357 20.2358C10.1705 20.301 10.0859 20.3335 10 20.3335C9.91422 20.3335 9.82962 20.301 9.76443 20.2358L9.41088 20.5894L9.76443 20.2358C9.63384 20.1052 9.6339 19.8952 9.76439 19.7647L9.76444 19.7647L14.1753 15.3537L14.5288 15.0002L14.1753 14.6466L9.76443 10.2358C9.76443 10.2358 9.76443 10.2358 9.76443 10.2358C9.63386 10.1053 9.63386 9.89519 9.76443 9.76462C9.895 9.63404 10.1051 9.63404 10.2357 9.76462L10.2357 9.76462L14.6465 14.1754L15 14.529L15.3536 14.1754L19.7644 9.76462L19.412 9.41218L19.7644 9.76462C19.895 9.63404 20.1051 9.63404 20.2356 9.76462C20.3662 9.89519 20.3662 10.1053 20.2357 10.2358L15.8248 14.6466Z" stroke="#2B313D" stroke-opacity="0.3"/>
</svg>
