<svg width="20" height="20" viewBox="0 0 20 20" fill="none" xmlns="http://www.w3.org/2000/svg">
<path fill-rule="evenodd" clip-rule="evenodd" d="M14.932 8.094C15.283 8.314 15.389 8.777 15.169 9.128C15.027 9.355 14.783 9.48 14.533 9.48C14.397 9.48 14.259 9.443 14.135 9.365L12.335 8.239C12.117 8.101 11.984 7.861 11.984 7.602C11.984 7.343 12.118 7.102 12.337 6.966L14.137 5.847C14.492 5.628 14.953 5.737 15.17 6.088C15.389 6.439 15.282 6.902 14.93 7.12L14.151 7.605L14.932 8.094ZM12.888 14.861H7.114C6.837 14.861 6.614 14.657 6.614 14.405C6.614 12.594 8.133 11.121 10 11.121C11.869 11.121 13.388 12.594 13.388 14.405C13.388 14.657 13.164 14.861 12.888 14.861ZM5.469 9.48C5.219 9.48 4.975 9.355 4.832 9.128C4.613 8.777 4.719 8.314 5.07 8.094L5.851 7.605L5.072 7.12C4.72 6.902 4.613 6.439 4.831 6.088C5.049 5.737 5.509 5.628 5.865 5.847L7.664 6.966C7.884 7.102 8.018 7.343 8.018 7.602C8.018 7.861 7.885 8.101 7.666 8.239L5.867 9.365C5.743 9.443 5.605 9.48 5.469 9.48ZM14.217 0.5H5.783C2.623 0.5 0.5 2.72 0.5 6.026V13.973C0.5 17.279 2.623 19.5 5.783 19.5H14.216C17.376 19.5 19.5 17.279 19.5 13.973V6.026C19.5 2.72 17.377 0.5 14.217 0.5Z" fill="black"/>
</svg>
