<svg width="30" height="30" viewBox="0 0 30 30" fill="none" xmlns="http://www.w3.org/2000/svg">
<path fill-rule="evenodd" clip-rule="evenodd" d="M25.5285 5.96034C24.5661 4.81794 23.4573 3.86514 22.2345 3.12954C21.8073 2.87274 21.2553 3.00954 20.9997 3.43554C20.7429 3.86154 20.8797 4.41474 21.3057 4.67154C22.3593 5.30514 23.3169 6.12954 24.1521 7.12074C24.3297 7.33194 24.5841 7.43994 24.8409 7.43994C25.0449 7.43994 25.2513 7.37034 25.4205 7.22874C25.7997 6.90834 25.8489 6.34074 25.5285 5.96034ZM8.4395 4.68039C8.8643 4.42119 8.9975 3.86679 8.7383 3.44319C8.4791 3.01719 7.9235 2.88759 7.5011 3.14439C6.2675 3.89919 5.1623 4.84479 4.2143 5.95599C3.8927 6.33519 3.9383 6.90399 4.3163 7.22559C4.4867 7.36959 4.6931 7.44039 4.8995 7.44039C5.1551 7.44039 5.4083 7.33239 5.5859 7.12359C6.4091 6.15639 7.3691 5.33439 8.4395 4.68039ZM13.5624 15.4328C13.5624 15.9296 13.9656 16.3328 14.4624 16.3328H18.6204C19.1172 16.3328 19.5204 15.9296 19.5204 15.4328C19.5204 14.936 19.1172 14.5328 18.6204 14.5328H15.3624V11.2447C15.3624 10.7479 14.9592 10.3447 14.4624 10.3447C13.9656 10.3447 13.5624 10.7479 13.5624 11.2447V15.4328ZM14.8008 4.94473C20.2056 4.94473 24.6036 9.34273 24.6036 14.7488C24.6036 17.8988 23.1036 20.6996 20.7864 22.4948L22.2696 25.0484C22.5192 25.478 22.374 26.0288 21.9444 26.2784C21.8016 26.3612 21.6456 26.4008 21.492 26.4008C21.1824 26.4008 20.8812 26.24 20.7132 25.9532L19.2684 23.4644C17.9268 24.1556 16.41 24.5528 14.8008 24.5528C13.1904 24.5528 11.6737 24.1556 10.3321 23.4644L8.88607 25.9532C8.71927 26.24 8.41687 26.4008 8.10727 26.4008C7.95367 26.4008 7.79767 26.3612 7.65607 26.2784C7.22647 26.0288 7.08007 25.478 7.32967 25.0484L8.81287 22.4948C6.49687 20.6996 4.99687 17.8988 4.99687 14.7488C4.99687 9.34273 9.39487 4.94473 14.8008 4.94473Z" fill="#2B313D"/>
</svg>
