<svg width="30" height="30" viewBox="0 0 30 30" fill="none" xmlns="http://www.w3.org/2000/svg">
<path fill-rule="evenodd" clip-rule="evenodd" d="M15.3095 8.99853C17.0147 8.99853 18.4025 7.61075 18.4025 5.90426C18.4025 4.20028 17.0147 2.8125 15.3095 2.8125C13.6042 2.8125 12.2178 4.20028 12.2178 5.90426C12.2178 7.61075 13.6042 8.99853 15.3095 8.99853ZM21.5766 15.5733C21.0094 15.4315 20.4799 15.0362 19.9592 14.3649C19.7162 14.0493 19.4945 13.7237 19.2753 13.4018L19.2753 13.4018L19.2741 13.4C18.5475 12.3334 17.7232 11.1263 16.2325 10.406C14.2499 9.45241 12.0152 9.59797 10.3978 10.7913C8.06146 12.5178 7.61476 15.7376 7.5332 16.6837C7.47422 17.3738 7.98492 17.9812 8.6763 18.0401C9.35136 18.1117 9.97373 17.5884 10.0327 16.8983C10.1481 15.5594 10.7028 13.6861 11.8873 12.8102C12.1846 12.5919 12.5422 12.4689 12.9161 12.3886L12.2775 14.9961C11.7793 16.9585 12.226 19.0854 13.4732 20.6852L18.2175 26.7959C18.466 27.1146 18.8361 27.2815 19.2101 27.2815C19.4786 27.2815 19.7496 27.195 19.9792 27.018C20.5263 26.5927 20.6254 25.8034 20.2001 25.2563L15.4533 19.1443C14.6791 18.1493 14.4005 16.8293 14.7117 15.6034L15.393 12.8266C16.1283 13.2758 16.6365 13.9872 17.2012 14.8141C17.4484 15.178 17.6993 15.5444 17.9754 15.9007C18.855 17.0363 19.8349 17.7252 20.9705 18.0075C21.0721 18.0339 21.1738 18.0452 21.2742 18.0452C21.8375 18.0452 22.3495 17.665 22.4913 17.094C22.6582 16.4215 22.2491 15.7401 21.5766 15.5733ZM8.37182 25.2743L10.8952 21.904C11.3118 21.3494 12.0972 21.2364 12.6519 21.6505C13.2065 22.0659 13.3194 22.8526 12.9054 23.4072L10.382 26.7775C10.1348 27.1075 9.75834 27.2807 9.37564 27.2807C9.11465 27.2807 8.85114 27.1991 8.62528 27.0297C8.07068 26.6157 7.95775 25.8289 8.37182 25.2743Z" fill="#2B313D"/>
</svg>
