<svg width="30" height="30" viewBox="0 0 30 30" fill="none" xmlns="http://www.w3.org/2000/svg">
<path fill-rule="evenodd" clip-rule="evenodd" d="M17.0897 3.11009L16.8412 4.91186C16.7735 5.3997 16.3546 5.75355 15.8759 5.75355C15.8317 5.75355 15.7861 5.75225 15.7406 5.74574C15.2072 5.67159 14.8352 5.17854 14.908 4.64517L15.1565 2.8434C15.2293 2.31002 15.7211 1.93015 16.2558 2.01081C16.7891 2.08366 17.1625 2.57671 17.0897 3.11009ZM12.8564 6.42211C12.5936 6.42211 12.3308 6.31674 12.1383 6.10729L10.9063 4.76995C10.5408 4.37317 10.5668 3.75654 10.9623 3.39098C11.359 3.02672 11.9757 3.05014 12.3412 3.44822L13.5745 4.78556C13.9388 5.18234 13.9141 5.79898 13.5173 6.16453C13.33 6.33755 13.0919 6.42211 12.8564 6.42211ZM8.25987 8.19969L13.0343 8.98024C13.0343 9.50118 12.997 10.0345 12.9589 10.5803L12.9562 10.6194C11.4471 11.3999 9.05343 12.2716 7.34923 12.1155C7.54437 10.7755 7.86959 9.42255 8.25987 8.19969ZM12.0585 19.4396C15.1027 16.1093 14.9986 8.9282 14.9726 8.12163C14.9596 7.6533 14.6214 7.26302 14.153 7.18497L7.76552 6.14424C7.29719 6.06618 6.84187 6.33937 6.68576 6.78169C6.41257 7.53622 4.0449 14.327 5.8922 18.4509C6.25646 19.2705 6.91992 19.921 7.75251 20.2852L7.11506 24.3311L5.81415 24.1229C5.28077 24.0319 4.77341 24.3961 4.69536 24.9295C4.60429 25.4629 4.96855 25.9572 5.50193 26.0483L9.99009 26.7768C10.0421 26.7898 10.0942 26.7898 10.1462 26.7898C10.6145 26.7898 11.0308 26.4516 11.1089 25.9702C11.1999 25.4369 10.8357 24.9425 10.3023 24.8514L9.04042 24.6433L9.67787 20.5974C10.5885 20.5064 11.4341 20.1161 12.0585 19.4396ZM17.7303 10.073L22.5307 9.52664C22.869 10.7625 23.1292 12.1285 23.2592 13.4684C21.555 13.5465 19.2004 12.5708 17.7303 11.7252C17.7043 11.1658 17.7043 10.6064 17.7303 10.073ZM24.2089 25.5409L22.921 25.684L22.4527 21.6252C23.3113 21.2999 24.0138 20.6755 24.4301 19.8689C26.4595 15.8361 24.4041 8.94123 24.1699 8.17369C24.0268 7.73137 23.5845 7.44517 23.1292 7.49721L16.6896 8.22572C16.2213 8.27776 15.857 8.65503 15.818 9.12336C15.766 9.92992 15.3236 17.111 18.2117 20.5714C18.7971 21.2739 19.6167 21.7032 20.5143 21.8333L20.9826 25.9052L19.6947 26.0613C19.1483 26.1133 18.7711 26.5947 18.8361 27.1411C18.8882 27.6354 19.3175 27.9997 19.7988 27.9997H19.9159L22.1665 27.7395H22.1795L24.4301 27.4793C24.9765 27.4143 25.3537 26.9329 25.2887 26.3995C25.2366 25.8662 24.7683 25.4889 24.2089 25.5409ZM18.499 7.18844C18.6889 7.18844 18.8802 7.1338 19.0493 7.01802L20.5505 5.99029C20.9954 5.68588 21.1086 5.07835 20.8042 4.63344C20.4998 4.18852 19.8923 4.07534 19.4474 4.37976L17.9474 5.40748C17.5025 5.7119 17.388 6.31943 17.6937 6.76434C17.8823 7.04013 18.1881 7.18844 18.499 7.18844Z" fill="#2B313D"/>
</svg>
