<svg width="82" height="82" viewBox="0 0 82 82" fill="none" xmlns="http://www.w3.org/2000/svg">
<rect width="82" height="82" rx="16" fill="#A2F4FF"/>
<path fill-rule="evenodd" clip-rule="evenodd" d="M44.7895 35.6526C44.7895 36.5587 45.5272 37.2947 46.4316 37.2947C47.3377 37.2947 48.0754 36.5587 48.0754 35.6526C48.0754 34.7465 47.336 34.0105 46.4299 34.0105C45.9886 34.0105 45.576 34.1823 45.2661 34.4956C44.9562 34.8072 44.7861 35.2232 44.7895 35.6526ZM34.0712 42.44C34.0712 46.5141 37.1802 49.8286 41 49.8286C44.8232 49.8286 47.9322 46.5141 47.9322 42.44C47.9322 41.9752 47.5549 41.5979 47.0901 41.5979H34.9133C34.4484 41.5979 34.0712 41.9752 34.0712 42.44ZM34.3187 34.4956C34.0088 34.8072 33.8387 35.2232 33.8421 35.6526C33.8421 36.5587 34.5798 37.2947 35.4842 37.2947C36.3903 37.2947 37.128 36.5587 37.128 35.6526C37.128 34.7465 36.3886 34.0105 35.4825 34.0105C35.0413 34.0105 34.6286 34.1823 34.3187 34.4956ZM33.8977 25H48.1023C53.4244 25 57 28.7406 57 34.3069V47.6931C57 53.2594 53.4227 57 48.1006 57H33.8977C28.5756 57 25 53.2594 25 47.6931V47H0V35H25V34.3069C25 28.7406 28.5756 25 33.8977 25Z" fill="#EED1FF"/>
</svg>
