<svg width="82" height="82" viewBox="0 0 82 82" fill="none" xmlns="http://www.w3.org/2000/svg">
<rect width="82" height="82" rx="16" fill="#A2F4FF"/>
<path fill-rule="evenodd" clip-rule="evenodd" d="M82 35L82 47L66.9277 47C62.4457 47 59.4374 47.0047 57.1207 47.1981C54.8726 47.3857 53.7977 47.7208 53.0886 48.0899C51.247 49.0487 49.7498 50.5785 48.8114 52.4601C48.4501 53.1846 48.1222 54.2828 47.9385 56.5798C47.7493 58.9469 47.7447 62.0206 47.7447 66.6L47.7447 82L36 82L36 66.3566C35.9999 62.0833 35.9999 58.5165 36.2329 55.6026C36.4759 52.5636 37.0013 49.7103 38.3468 47.0122C40.4112 42.8726 43.7051 39.5071 47.7566 37.3979C50.3973 36.0231 53.1899 35.4862 56.1643 35.2379C59.0162 34.9998 62.5071 34.9999 66.6894 35L82 35Z" fill="#EED1FF"/>
</svg>
