<svg width="30" height="30" viewBox="0 0 30 30" fill="none" xmlns="http://www.w3.org/2000/svg">
<path fill-rule="evenodd" clip-rule="evenodd" d="M25.6054 17.0617C25.735 16.4017 25.7998 15.7057 25.7998 15.0097C25.7998 14.5393 25.7686 14.0809 25.7086 13.6333C25.6642 13.3045 25.3714 13.0657 25.0402 13.0657H15.6742C15.3022 13.0657 14.9998 13.3681 14.9998 13.7401V16.3873C14.9998 16.7593 15.3022 17.0617 15.6742 17.0617H20.8042C21.0154 17.0617 21.1702 17.2777 21.091 17.4733C19.969 20.2453 17.023 22.0645 13.7326 21.4561C11.2055 20.9893 9.13427 18.9853 8.59187 16.4737C7.67147 12.2113 10.8923 8.4458 14.9998 8.4458C16.3462 8.4458 17.5942 8.8502 18.6346 9.5426C18.913 9.7274 19.2766 9.7094 19.5118 9.4706L21.5542 7.391C21.8326 7.1066 21.8158 6.6338 21.499 6.3926C19.7698 5.0774 17.6314 4.2782 15.3058 4.2146C9.45947 4.0526 4.39667 8.8022 4.20587 14.6473C4.00547 20.7769 8.91827 25.8097 14.9998 25.8097C20.2594 25.8097 24.6442 22.0417 25.6054 17.0617Z" fill="#2B313D"/>
</svg>
