<svg width="30" height="30" viewBox="0 0 30 30" fill="none" xmlns="http://www.w3.org/2000/svg">
<path fill-rule="evenodd" clip-rule="evenodd" d="M6.91114 4C5.30327 4 4 5.30327 4 6.91114V10.0078C4 11.6157 5.30327 12.9189 6.91114 12.9189H23.0889C24.6968 12.9189 26 11.6157 26 10.0078V6.91114C26 5.30327 24.6968 4 23.0889 4H6.91114ZM6.91114 17.0811C5.30327 17.0811 4 18.3843 4 19.9922V23.0889C4 24.6968 5.30327 26 6.91114 26H10.0078C11.6157 26 12.9189 24.6968 12.9189 23.0889V19.9922C12.9189 18.3843 11.6157 17.0811 10.0078 17.0811H6.91114ZM17.0811 19.9922C17.0811 18.3843 18.3843 17.0811 19.9922 17.0811H23.0889C24.6968 17.0811 26 18.3843 26 19.9922V23.0889C26 24.6968 24.6968 26 23.0889 26H19.9922C18.3843 26 17.0811 24.6968 17.0811 23.0889V19.9922Z" fill="#2B313D"/>
</svg>
