<svg width="30" height="30" viewBox="0 0 30 30" fill="none" xmlns="http://www.w3.org/2000/svg">
<path fill-rule="evenodd" clip-rule="evenodd" d="M24.333 6.03254H25.6041C26.0986 6.03254 26.5 6.43393 26.5 6.92849C26.5 7.42305 26.0986 7.82444 25.6041 7.82444H23.5975C23.5024 7.82444 23.4113 7.8622 23.344 7.92942L15.1597 16.1149C14.9841 16.2905 14.7559 16.3777 14.5266 16.3777C14.296 16.3777 14.0678 16.2905 13.8922 16.1149C13.5422 15.7649 13.5422 15.1986 13.8922 14.8486L22.0777 6.66194C22.145 6.59473 22.1827 6.50359 22.1827 6.40854V4.39595C22.1827 3.90138 22.5841 3.5 23.0787 3.5C23.5732 3.5 23.9746 3.90138 23.9746 4.39595V5.67417C23.9746 5.8721 24.1351 6.03254 24.333 6.03254ZM20.2864 13.0995C20.185 13.2009 20.1547 13.3527 20.2033 13.4876C20.4443 14.1566 20.5827 14.8743 20.5827 15.626C20.5827 19.1369 17.7252 21.9932 14.2107 21.9932C10.6974 21.9932 7.83758 19.1369 7.83758 15.626C7.83758 12.1079 10.6974 9.24685 14.2107 9.24685C15.0523 9.24685 15.8508 9.41925 16.5848 9.7188C16.7229 9.77514 16.8824 9.74686 16.9878 9.64139L19.6888 6.93941C19.85 6.77805 19.8216 6.5088 19.6252 6.3928C18.0354 5.45402 16.186 4.90927 14.2095 4.90927C8.30467 4.90927 3.5 9.71633 3.5 15.626C3.5 21.5273 8.30467 26.3296 14.2095 26.3296C20.1144 26.3296 24.9179 21.5273 24.9179 15.626C24.9179 13.7432 24.4218 11.9798 23.5657 10.4422C23.4529 10.2397 23.1787 10.2073 23.0148 10.3712L20.2864 13.0995ZM14.9743 11.6542C15.1687 11.4597 15.0799 11.1283 14.8081 11.0858C14.6132 11.0553 14.4145 11.0374 14.2113 11.0374C11.6847 11.0374 9.62999 13.0957 9.62999 15.6246C9.62999 18.1488 11.6847 20.1999 14.2113 20.1999C16.7366 20.1999 18.7913 18.1488 18.7913 15.6246C18.7913 15.5322 18.7885 15.4404 18.7829 15.3494C18.7653 15.0646 18.4259 14.9591 18.2242 15.161L16.2146 17.1704C15.7487 17.6375 15.1371 17.8705 14.5254 17.8705C13.915 17.8705 13.3034 17.6375 12.8363 17.1704C11.9033 16.2387 11.9033 14.7251 12.8363 13.7921L14.9743 11.6542Z" fill="#2B313D"/>
</svg>
