<svg width="30" height="30" viewBox="0 0 30 30" fill="none" xmlns="http://www.w3.org/2000/svg">
<path d="M8.6136 22.11C8.6136 21.6917 8.6136 21.2988 8.6136 20.9058C8.6136 20.8562 8.60738 20.8059 8.60738 20.8081C7.95459 20.599 7.30259 20.4555 6.70825 20.1877C4.06287 18.9956 2.48077 16.9795 2.08038 14.1476C1.75399 11.8406 2.42702 9.78782 4.00054 8.04714C5.29753 6.61247 6.94115 5.77837 8.8878 5.54409C10.5618 5.34262 12.1392 5.64941 13.6232 6.43236C13.6823 6.46366 13.7875 6.46442 13.8483 6.43466C16.6853 5.01983 19.4382 5.15871 22.1093 6.85513C22.1302 6.86888 22.1536 6.87956 22.1489 6.8765C22.6055 6.43008 23.051 5.99281 23.5029 5.55096C23.2832 5.55096 23.0526 5.55096 22.8219 5.55096C22.0968 5.54791 21.5329 5.03051 21.504 4.3414C21.4744 3.63628 21.9909 3.0502 22.7207 3.01816C23.4077 2.98763 24.0963 3.00518 24.7842 3.00365C25.3879 3.00212 25.9916 2.99908 26.5953 3.00441C27.3003 3.01051 27.802 3.36919 27.9569 3.97587C27.9866 4.09186 27.9967 4.21472 27.9967 4.33454C27.9998 5.56851 28.0022 6.80172 27.9967 8.03569C27.9928 8.94305 27.2201 9.54897 26.3585 9.32996C25.8187 9.19259 25.4206 8.71106 25.4035 8.16465C25.3957 7.9136 25.4019 7.66177 25.4019 7.42366C24.9541 7.86246 24.5108 8.29515 24.0582 8.73853C24.1999 8.97052 24.3722 9.23151 24.5225 9.50394C27.0285 14.0468 24.3496 19.6672 19.1826 20.6845C17.3232 21.0508 15.5456 20.7791 13.87 19.8962C13.8054 19.8618 13.6917 19.8543 13.6294 19.887C12.9104 20.2662 12.1525 20.5348 11.354 20.6998C11.2995 20.7112 11.2177 20.7845 11.2169 20.8309C11.206 21.2499 11.2107 21.6689 11.2107 22.1115C11.6391 22.1115 12.0527 22.1046 12.4656 22.113C12.9416 22.1222 13.3178 22.3244 13.5656 22.7243C14.0952 23.5805 13.4821 24.6398 12.4469 24.6604C12.0457 24.668 11.6438 24.6619 11.2216 24.6619C11.2169 24.7413 11.2107 24.8084 11.2099 24.8755C11.206 25.1999 11.2208 25.525 11.1959 25.8477C11.1437 26.5323 10.5602 27.0214 9.84594 26.9993C9.17368 26.9788 8.6284 26.4353 8.61438 25.763C8.60737 25.4075 8.61282 25.0519 8.61282 24.6719C8.52792 24.668 8.45391 24.6634 8.37913 24.6619C7.95771 24.6528 7.53239 24.6786 7.11642 24.6291C6.43638 24.5482 5.99082 23.9545 6.04144 23.2653C6.08741 22.6351 6.64202 22.123 7.29871 22.113C7.72635 22.1062 8.15479 22.1115 8.61126 22.1115L8.6136 22.11ZM15.9647 18.0128C18.0438 18.7393 20.6487 18.0494 22.0485 15.9233C23.4132 13.85 23.0729 11.1637 21.2064 9.41084C19.5566 7.86094 17.218 7.78462 15.9788 8.32415C18.2612 11.5545 18.2596 14.7718 15.9647 18.0128ZM11.5067 8.31194C9.76024 7.65947 7.17874 8.05859 5.6247 10.1137C4.12283 12.0986 4.27708 14.8946 6.07104 16.7239C7.71233 18.3982 10.1155 18.5737 11.5012 17.9975C9.20951 14.7641 9.21263 11.5422 11.5067 8.31194ZM13.74 9.75043C11.7871 11.8216 12.1322 14.9931 13.7549 16.556C15.5378 14.6199 15.4888 11.6231 13.74 9.75043Z" fill="#2B313D"/>
</svg>
