<svg width="56" height="56" viewBox="0 0 56 56" fill="none" xmlns="http://www.w3.org/2000/svg">
<g clip-path="url(#clip0_3095_1486)">
<path d="M50.9209 26.872C50.9209 40.548 39.5632 51.6346 25.5528 51.6346C11.5425 51.6346 5.50391 40.548 5.50391 26.872C5.50391 13.1959 8.48999 6 22.5004 6C36.5107 6 50.9209 13.1959 50.9209 26.872Z" fill="#D38CFF" fill-opacity="0.4"/>
<path d="M10.9445 16.4877C20.4396 6.43145 37.876 2.82587 48.1782 12.0943C58.4803 21.3628 51.1267 31.194 41.6316 41.2503C32.1365 51.3066 23.629 57.1724 13.3268 47.9039C-2.14866 32.4636 1.44944 26.544 10.9445 16.4877Z" fill="#16E3FF" fill-opacity="0.4"/>
<path d="M50.5284 20.3723C55.1784 35.0804 52.0064 49.2746 38.619 53.3075C25.2316 57.3403 12.9505 49.0815 8.30049 34.3734C3.65052 19.6654 4.36921 10.9826 17.9999 9.00005C39.496 3.83893 45.8784 5.66428 50.5284 20.3723Z" fill="#FF937B" fill-opacity="0.4"/>
<circle cx="28" cy="28" r="12" fill="white"/>
</g>
<defs>
<clipPath id="clip0_3095_1486">
<rect width="56" height="56" fill="white"/>
</clipPath>
</defs>
</svg>
