<svg width="135" height="56" viewBox="0 0 135 56" fill="none" xmlns="http://www.w3.org/2000/svg">
<g clip-path="url(#clip0_2125_6758)">
<path d="M0 32.2C0 43.1053 5.6 56 19.9684 56C39.7158 56 44.2105 28.5895 44.2105 18.7158C44.2105 9.06316 40.8211 0.515789 27.2632 0.515789C24.2421 0.515789 21.5895 1.76842 21.5895 1.76842C20.7789 0.957895 20.4842 0.368421 18.7158 0C9.65263 1.91579 0 19.0842 0 32.2ZM6.63158 35.6632C6.63158 24.9789 11.2737 18.2 11.2 18.2C11.9368 18.7158 14.0737 19.3789 14.8842 19.3789C15.1053 19.3789 15.1789 19.3789 15.1789 19.3053C16.8 13.0421 21 4.71579 29.8421 4.71579C34.7053 4.71579 36.5474 9.28421 36.5474 13.7789C36.5474 19.9684 33.0105 50.6947 16.9474 50.6947C10.1684 50.6211 6.63158 43.9895 6.63158 35.6632ZM61.3398 28.7368C60.5313 32.4947 59.2818 40.2316 59.2818 43.4C59.2818 49.4421 60.8253 54.7474 66.1908 54.7474C71.7769 54.7474 75.1579 49 75.1579 45.8316C75.1579 43.9895 73.3939 43.8421 73.3939 43.8421C72.7324 45.7579 71.1889 49.7368 68.5429 49.7368C66.3378 49.7368 65.3088 47.8947 65.3088 44.0632C65.3088 34.1895 69.4984 24.5368 70.1599 16.9474C70.3804 14.5895 66.7788 13.2632 64.5738 13.2632C63.8388 13.2632 63.1773 13.2632 62.8098 13.9263C58.3263 21.9579 55.3128 30.8 52.2993 38.9789H52.0052C52.0052 31.6105 54.2103 24.7579 55.1658 17.6105C55.3863 15.7684 53.5488 15.6211 52.5933 15.6211C47.7422 15.6211 45.6842 30.5053 45.6842 46.3474C45.6842 52.0211 46.6397 56 50.2412 56C51.9317 56 52.9608 54.8947 52.9608 54.8947C52.8873 47.8947 57.0768 35.2947 60.3843 28.7368H61.3398ZM76.6316 42.5158C76.6316 51.1368 83.4105 56 90.6316 56C101.021 56 106.105 45.8316 106.105 39.8632C106.105 37.9474 104.853 36.5474 103.379 36.5474C102.053 36.5474 102.053 37.2842 102.053 37.2842C102.053 41.8526 96.2316 50.4737 89.0105 50.4737C84.2211 50.4737 82.5263 48.0421 82.5263 44.8C82.5263 39.2 84.2211 35.5895 84.2211 35.5895C84.2211 35.5895 85.621 38.4632 89.6737 38.4632C97.1158 38.4632 100.358 30.4316 100.358 21.6632C100.358 15.3263 96.2316 13.2632 92.6947 13.2632C84.3684 13.2632 76.6316 30.9474 76.6316 42.5158ZM85.3263 32.6421C86.3579 27.6316 89.0105 21.9579 91.2211 18.2C91.8105 17.2421 92.2526 16.9474 92.621 16.9474C93.0632 16.9474 93.7263 17.3158 93.7263 20.1895C93.7263 26.5263 90.9263 34.3368 87.6105 34.3368C85.7684 34.3368 85.3263 32.6421 85.3263 32.6421ZM124 13.5C124.288 13.519 129.808 14.1621 129.168 16.9362C128.332 20.3529 127.337 21.7184 126.416 26.2042L126.205 27.2412C124.703 34.6825 123.45 42.2784 123.495 46.281C123.495 49.3911 124.6 50.9461 125.779 50.9461C130.421 50.9461 131.821 41.7714 132.042 38.3503C132.042 38.3503 134.842 37.495 134.842 40.9161C134.842 46.281 132.116 56 123.716 56C119.368 56 117.158 52.5012 117.158 45.8145C117.158 41.7564 117.899 35.5796 118.852 29.4928L119.004 28.5328C120.105 21.6627 121.44 18.0566 122.242 14.9147C122.537 13.9817 123.484 13.5 124 13.5ZM115.87 0C117.721 0 121.054 1.91787 120.832 3.17185C118.091 18.2197 115.351 34.4478 114.315 49.9383C114.166 51.8561 114.018 53.774 113.944 55.6919C113.13 56.8721 108.168 54.3641 107.798 53.1839C107.353 52.1512 107.724 49.0531 107.724 46.8402C108.464 35.8493 112.019 12.8349 114.685 0.663876C114.833 0.073764 115.499 0 115.87 0ZM129.095 1C131.536 1 133.15 2.99639 133.15 5.5773C133.15 8.15821 131.536 10.1546 129.095 10.1546C126.653 10.1546 124.989 8.25407 124.989 5.67316C124.989 3.09224 126.653 1 129.095 1Z" fill="#2B313D"/>
</g>
<defs>
<clipPath id="clip0_2125_6758">
<rect width="134.842" height="56" fill="white"/>
</clipPath>
</defs>
</svg>
