<svg width="32" height="32" viewBox="0 0 32 32" fill="none" xmlns="http://www.w3.org/2000/svg">
<path fill-rule="evenodd" clip-rule="evenodd" d="M23.1182 14.57C22.4076 14.57 21.8276 13.9761 21.8276 13.2467C21.8276 12.516 22.4076 11.9221 23.1182 11.9221C23.8289 11.9221 24.4088 12.516 24.4088 13.2467C24.4088 13.9761 23.8289 14.57 23.1182 14.57ZM18.4238 9.60675C17.7118 9.60675 17.1331 9.01286 17.1331 8.28349C17.1331 7.55275 17.7118 6.95885 18.4238 6.95885C19.1344 6.95885 19.713 7.55275 19.713 8.28349C19.713 9.01286 19.1344 9.60675 18.4238 9.60675ZM12.2667 11.1011C11.556 11.1011 10.9774 10.5058 10.9774 9.77644C10.9774 9.0457 11.556 8.45317 12.2667 8.45317C12.9786 8.45317 13.5573 9.0457 13.5573 9.77644C13.5573 10.5058 12.9786 11.1011 12.2667 11.1011ZM8.87347 16.717C8.16283 16.717 7.58419 16.1231 7.58419 15.3924C7.58419 14.6616 8.16283 14.0677 8.87347 14.0677C9.58544 14.0677 10.1627 14.6616 10.1627 15.3924C10.1627 16.1231 9.58544 16.717 8.87347 16.717ZM25.9928 7.1217C23.8435 4.47379 20.449 3.00958 16.4358 3H16.3985C9.59344 3 4.58165 7.37896 3.62569 14.1635C3.08304 18.0074 4.31366 21.9075 7.00421 24.8633C9.42278 27.5221 12.6666 29 16.0212 29C16.3132 29 16.6078 28.9891 16.9025 28.9672C18.0718 28.8755 18.9771 28.3774 19.449 27.5632C19.9144 26.7626 19.921 25.7486 19.4677 24.71C19.1877 24.0668 18.9264 23.1637 19.2877 22.515C19.6184 21.9211 20.3903 21.7159 20.9797 21.6475C23.7329 21.3327 25.9688 20.0957 27.2714 18.1621C29.5646 14.7684 28.3647 10.0378 25.9928 7.1217Z" fill="#2B313D"/>
</svg>
