<svg width="24" height="24" viewBox="0 0 24 24" fill="none" xmlns="http://www.w3.org/2000/svg">
<path fill-rule="evenodd" clip-rule="evenodd" d="M20.4228 4.76818C19.6529 3.85426 18.7659 3.09202 17.7876 2.50354C17.4459 2.2981 17.0043 2.40754 16.7998 2.74834C16.5944 3.08914 16.7038 3.5317 17.0446 3.73714C17.8875 4.24402 18.6536 4.90354 19.3217 5.6965C19.4638 5.86546 19.6673 5.95186 19.8728 5.95186C20.036 5.95186 20.2011 5.89618 20.3364 5.7829C20.6398 5.52658 20.6792 5.0725 20.4228 4.76818ZM6.75164 3.74421C7.09148 3.53685 7.19804 3.09333 6.99068 2.75445C6.78332 2.41365 6.33884 2.30997 6.00092 2.51541C5.01404 3.11925 4.12988 3.87573 3.37148 4.76469C3.1142 5.06805 3.15068 5.52309 3.45308 5.78037C3.5894 5.89557 3.75452 5.95221 3.91964 5.95221C4.12412 5.95221 4.32668 5.86581 4.46876 5.69877C5.12732 4.92501 5.89532 4.26741 6.75164 3.74421ZM10.85 12.3461C10.85 12.7436 11.1725 13.0661 11.57 13.0661H14.8964C15.2938 13.0661 15.6164 12.7436 15.6164 12.3461C15.6164 11.9487 15.2938 11.6261 14.8964 11.6261H12.29V8.99569C12.29 8.59825 11.9674 8.27569 11.57 8.27569C11.1725 8.27569 10.85 8.59825 10.85 8.99569V12.3461ZM11.8407 3.95569C16.1645 3.95569 19.6829 7.47409 19.6829 11.7989C19.6829 14.3189 18.4829 16.5596 16.6292 17.9957L17.8157 20.0386C18.0154 20.3823 17.8993 20.8229 17.5556 21.0226C17.4413 21.0888 17.3165 21.1205 17.1937 21.1205C16.946 21.1205 16.705 20.9919 16.5706 20.7624L15.4148 18.7714C14.3415 19.3244 13.1281 19.6421 11.8407 19.6421C10.5524 19.6421 9.33897 19.3244 8.26569 18.7714L7.10889 20.7624C6.97545 20.9919 6.73353 21.1205 6.48585 21.1205C6.36297 21.1205 6.23817 21.0888 6.12489 21.0226C5.78121 20.8229 5.66409 20.3823 5.86377 20.0386L7.05033 17.9957C5.19753 16.5596 3.99753 14.3189 3.99753 11.7989C3.99753 7.47409 7.51593 3.95569 11.8407 3.95569Z" fill="#2B313D"/>
</svg>
