<svg width="30" height="30" viewBox="0 0 30 30" fill="none" xmlns="http://www.w3.org/2000/svg">
<path fill-rule="evenodd" clip-rule="evenodd" d="M19.9938 3.75H10.0062C6.26408 3.75 3.75 6.38013 3.75 10.2939V19.7061C3.75 23.6199 6.26408 26.25 10.0062 26.25H19.9926C23.7347 26.25 26.25 23.6199 26.25 19.7061V10.2939C26.25 6.38013 23.7359 3.75 19.9938 3.75ZM13.8955 14.168C14.1716 14.168 14.3955 14.3919 14.3955 14.668V15.0815C14.3955 15.3576 14.1716 15.5815 13.8955 15.5815H11.0345C10.7584 15.5815 10.5345 15.8054 10.5345 16.0815V18.2C10.5345 18.4761 10.3106 18.7 10.0345 18.7H9.5C9.22386 18.7 9 18.4761 9 18.2V11.5C9 11.2239 9.22386 11 9.5 11H14.154C14.4301 11 14.654 11.2239 14.654 11.5V11.9135C14.654 12.1896 14.4301 12.4135 14.154 12.4135H11.0345C10.7584 12.4135 10.5345 12.6374 10.5345 12.9135V13.668C10.5345 13.9441 10.7584 14.168 11.0345 14.168H13.8955ZM20.5117 13.3705C20.7879 13.3705 21.0117 13.5944 21.0117 13.8705V18.2C21.0117 18.4761 20.7879 18.7 20.5117 18.7H19.7629C19.678 18.7 19.6092 18.6312 19.6092 18.5463C19.6092 18.4014 19.4153 18.3277 19.3019 18.4178C18.9779 18.6754 18.5546 18.8375 18.0142 18.8375C16.5457 18.8375 15.4347 17.633 15.4347 16.0325C15.4347 14.432 16.5457 13.2275 18.0142 13.2275C18.5564 13.2275 18.9777 13.3907 19.3028 13.652C19.4159 13.7429 19.6092 13.6695 19.6092 13.5244C19.6092 13.4394 19.6782 13.3705 19.7632 13.3705H20.5117ZM19.6532 16.0325C19.6532 15.191 19.0977 14.564 18.2782 14.564C17.4367 14.564 16.9032 15.2185 16.9032 16.0325C16.9032 16.8465 17.4367 17.501 18.2782 17.501C19.0977 17.501 19.6532 16.874 19.6532 16.0325Z" fill="#2B313D"/>
</svg>
