<svg width="30" height="30" viewBox="0 0 30 30" fill="none" xmlns="http://www.w3.org/2000/svg">
<path fill-rule="evenodd" clip-rule="evenodd" d="M11.1979 4.65946C12.4899 4.90999 13.5384 5.52719 14.328 6.33798C14.3909 6.09731 14.4761 5.84579 14.591 5.59293C14.8895 4.93585 15.3876 4.27258 16.1985 3.78028C17.0061 3.2899 18.0819 2.99456 19.4969 3.00008C19.8199 3.00134 20.0888 3.2485 20.117 3.57025C20.2376 4.94013 19.9848 5.99623 19.4765 6.79238C18.9699 7.58609 18.2496 8.05868 17.5469 8.33634C16.9096 8.58811 16.2704 8.68681 15.772 8.7219C15.9073 9.12804 15.999 9.54158 16.0461 9.95143C16.5968 9.89901 17.1475 9.79855 17.699 9.65005C18.4334 9.45183 20.1936 9.17945 21.8614 9.92586C23.6018 10.7047 25.0661 12.5099 25.2886 16.1123C25.2893 16.1234 25.2896 16.1345 25.2898 16.1456C25.3178 19.5423 24.2361 22.1069 22.996 23.8435C22.3776 24.7094 21.7183 25.3719 21.1339 25.831C20.842 26.0602 20.5629 26.2435 20.3109 26.3764C20.0864 26.4947 19.8445 26.5941 19.6151 26.6281C18.5523 26.8784 17.5794 26.6994 16.8025 26.4849C16.5639 26.4189 16.316 26.3409 16.0985 26.2724L16.096 26.2716C15.9753 26.2336 15.8639 26.1986 15.7686 26.1702C15.4621 26.0789 15.2709 26.0395 15.1458 26.0395C15.0143 26.0395 14.8194 26.0776 14.516 26.163C14.4173 26.1907 14.2985 26.2261 14.1694 26.2647C13.957 26.3281 13.7164 26.4 13.49 26.46C12.7158 26.6655 11.7505 26.8409 10.6858 26.6295C10.4534 26.5958 10.2063 26.4945 9.97501 26.372C9.72272 26.2384 9.44336 26.0548 9.15128 25.8253C8.56657 25.3656 7.90766 24.7035 7.29011 23.8384C6.05153 22.1033 4.97323 19.542 5.00051 16.1458C5.00061 16.1346 5.00099 16.1235 5.00168 16.1123C5.22412 12.5099 6.68892 10.7047 8.42936 9.92585C10.0974 9.17941 11.8577 9.45184 12.5916 9.65014C13.1125 9.79039 13.6328 9.88778 14.1529 9.9423C13.8938 8.40599 12.7349 6.86741 10.841 6.50019C10.3327 6.40163 10.0005 5.90966 10.0991 5.40136C10.1977 4.89306 10.6896 4.56091 11.1979 4.65946ZM11.4222 14.1263C11.8898 13.9041 12.0889 13.3449 11.8667 12.8773C11.6446 12.4095 11.0854 12.2105 10.6177 12.4326C9.35926 13.0304 8.44997 14.2724 8.25964 15.6518C8.18888 16.1648 8.54731 16.6379 9.06022 16.7086C9.57313 16.7794 10.0463 16.421 10.1171 15.908C10.221 15.1544 10.7347 14.4529 11.4222 14.1263Z" fill="#2B313D"/>
</svg>
