<svg width="30" height="30" viewBox="0 0 30 30" fill="none" xmlns="http://www.w3.org/2000/svg">
<path fill-rule="evenodd" clip-rule="evenodd" d="M18.4966 4.62282L18.0983 6.78148H20.7323C22.2253 6.78148 23.496 7.94645 23.4961 9.45852L23.5 24.051C23.5 24.0991 23.4992 24.147 23.4974 24.1946V24.3173C23.4974 26.3423 21.8389 27.9839 19.7932 27.9839H19.778C19.6562 27.9945 19.533 28 19.4087 28H10.5966C10.4722 28 10.349 27.9945 10.2272 27.9839H10.2042C8.15844 27.9839 6.5 26.3423 6.5 24.3173V15.0664C6.5 15.0415 6.50094 15.0165 6.50282 14.9919L6.50132 9.45878C6.50132 7.94839 7.77141 6.78148 9.26507 6.78148H16.0443L16.5091 4.26296C16.8176 2.59622 18.557 1.59656 20.1711 2.15628L22.8217 3.07757C23.3481 3.26054 23.625 3.83129 23.4402 4.35237C23.2553 4.87345 22.6787 5.14754 22.1522 4.96457L19.5031 4.04378C19.0597 3.89019 18.5815 4.16481 18.4966 4.62282ZM9.26507 8.78144H15.6752L14.7659 13.708C15.0704 13.8772 15.3608 14.0706 15.6333 14.2883C15.9274 14.5233 16.2552 14.7176 16.6052 14.8712L17.7291 8.78144H20.7323C21.1762 8.78144 21.4756 9.11619 21.4756 9.45905L21.477 14.5553C20.0813 15.4365 18.1329 15.5417 16.6052 14.8712L15.4812 20.9609C15.3809 21.5043 14.8548 21.8643 14.3059 21.7649C13.757 21.6657 13.3933 21.1448 13.4936 20.6015L14.7659 13.708C12.9014 12.6726 10.512 12.5498 8.52285 13.3394L8.5218 9.45878C8.5219 9.11679 8.82182 8.78144 9.26507 8.78144ZM11.3223 17.0072C11.8803 17.0072 12.3325 17.4549 12.3325 18.0071V18.0591C12.3325 18.6114 11.8803 19.0591 11.3223 19.0591C10.7644 19.0591 10.3121 18.6114 10.3121 18.0591V18.0071C10.3121 17.4549 10.7644 17.0072 11.3223 17.0072ZM18.7838 20.8405C19.3417 20.8405 19.794 21.2881 19.794 21.8405V21.9052C19.794 22.4574 19.3417 22.9052 18.7838 22.9052C18.2257 22.9052 17.7735 22.4574 17.7735 21.9052V21.8405C17.7735 21.2881 18.2257 20.8405 18.7838 20.8405ZM12.0288 22.4536C12.5867 22.4536 13.039 22.9012 13.039 23.4536V23.5141C13.039 24.0663 12.5867 24.5141 12.0288 24.5141C11.4709 24.5141 11.0186 24.0663 11.0186 23.5141V23.4536C11.0186 22.9012 11.4709 22.4536 12.0288 22.4536Z" fill="#2B313D"/>
</svg>
