<svg width="20" height="20" viewBox="0 0 20 20" fill="none" xmlns="http://www.w3.org/2000/svg">
<path fill-rule="evenodd" clip-rule="evenodd" d="M13.225 7.2C12.688 7.2 12.25 6.763 12.25 6.225C12.248 5.97 12.349 5.724 12.533 5.538C12.717 5.352 12.962 5.25 13.224 5.25C13.762 5.25 14.201 5.687 14.201 6.225C14.201 6.763 13.763 7.2 13.225 7.2ZM10.001 14.751C8.611 14.751 7.48 13.62 7.48 12.229C7.48 10.839 8.611 9.707 10.001 9.707C11.392 9.707 12.523 10.839 12.523 12.229C12.523 13.62 11.392 14.751 10.001 14.751ZM6.725 7.2C6.188 7.2 5.75 6.763 5.75 6.225C5.748 5.97 5.849 5.724 6.033 5.538C6.217 5.352 6.462 5.25 6.724 5.25C7.262 5.25 7.701 5.687 7.701 6.225C7.701 6.763 7.263 7.2 6.725 7.2ZM14.217 0.5H5.783C2.623 0.5 0.5 2.721 0.5 6.026V13.974C0.5 17.28 2.623 19.5 5.783 19.5H14.216C17.376 19.5 19.5 17.28 19.5 13.974V6.026C19.5 2.721 17.377 0.5 14.217 0.5Z" fill="black"/>
</svg>
