<svg width="30" height="30" viewBox="0 0 30 30" fill="none" xmlns="http://www.w3.org/2000/svg">
<path fill-rule="evenodd" clip-rule="evenodd" d="M9.67418 4.03751C10.2003 4.03751 10.6268 4.46401 10.6268 4.99012V6.90929C10.6268 7.4354 10.2003 7.86191 9.67418 7.86191C9.14806 7.86191 8.72157 7.4354 8.72157 6.90929V4.99012C8.72157 4.46401 9.14806 4.03751 9.67418 4.03751ZM13.7702 4.03751C14.2963 4.03751 14.7228 4.46401 14.7228 4.99012V6.90929C14.7228 7.4354 14.2963 7.86191 13.7702 7.86191C13.2441 7.86191 12.8176 7.4354 12.8176 6.90929V4.99012C12.8176 4.46401 13.2441 4.03751 13.7702 4.03751ZM18.8188 4.99012C18.8188 4.46401 18.3924 4.03751 17.8662 4.03751C17.3401 4.03751 16.9136 4.46401 16.9136 4.99012V6.90929C16.9136 7.4354 17.3401 7.86191 17.8662 7.86191C18.3924 7.86191 18.8188 7.4354 18.8188 6.90929V4.99012ZM8.21731 9.87692C6.49028 9.87692 5.08963 11.2761 5.08963 13.0046V16.9165C5.08963 19.8679 6.55459 22.4774 8.79695 24.0573H5.94797C5.42187 24.0573 4.99536 24.4837 4.99536 25.0099C4.99536 25.536 5.42187 25.9626 5.94797 25.9626H23.0864C23.6125 25.9626 24.039 25.536 24.039 25.0099C24.039 24.4837 23.6125 24.0573 23.0864 24.0573H18.8407C20.5046 22.885 21.7404 21.1458 22.2673 19.1206H23.4263C25.4002 19.1206 27 17.5209 27 15.5469C27 13.5729 25.4002 11.9732 23.4263 11.9732H22.3741C21.948 10.7521 20.7862 9.87692 19.4204 9.87692H8.21731ZM22.548 13.8783V16.9165C22.548 17.0166 22.5463 17.1162 22.543 17.2154H23.4263C24.348 17.2154 25.0948 16.4687 25.0948 15.5469C25.0948 14.6252 24.348 13.8783 23.4263 13.8783H22.548Z" fill="#2B313D"/>
</svg>
