<svg width="20" height="20" viewBox="0 0 20 20" fill="none" xmlns="http://www.w3.org/2000/svg">
<path fill-rule="evenodd" clip-rule="evenodd" d="M13.275 7.227C12.737 7.227 12.299 6.79 12.299 6.252C12.297 5.997 12.398 5.751 12.582 5.565C12.766 5.379 13.012 5.277 13.274 5.277C13.812 5.277 14.25 5.714 14.25 6.252C14.25 6.79 13.812 7.227 13.275 7.227ZM11.821 10.531H8.278C7.864 10.531 7.528 10.195 7.528 9.781C7.528 9.367 7.864 9.031 8.278 9.031H11.821C12.235 9.031 12.571 9.367 12.571 9.781C12.571 10.195 12.235 10.531 11.821 10.531ZM6.775 7.227C6.237 7.227 5.799 6.79 5.799 6.252C5.797 5.997 5.898 5.751 6.082 5.565C6.266 5.379 6.512 5.277 6.774 5.277C7.312 5.277 7.75 5.714 7.75 6.252C7.75 6.79 7.312 7.227 6.775 7.227ZM14.216 0.5H5.782C2.623 0.5 0.5 2.721 0.5 6.026V13.974C0.5 17.279 2.623 19.5 5.782 19.5H14.215C17.376 19.5 19.5 17.279 19.5 13.974V6.026C19.5 2.721 17.377 0.5 14.216 0.5Z" fill="black"/>
</svg>
