<svg width="30" height="30" viewBox="0 0 30 30" fill="none" xmlns="http://www.w3.org/2000/svg">
<path fill-rule="evenodd" clip-rule="evenodd" d="M18.1568 5.27144L17.787 7.29523H19.1879C21.1719 7.29523 22.7288 8.99503 22.5554 10.9708L21.3963 24.106C21.2415 25.8495 19.7806 27.188 18.0289 27.188H11.5247C11.2113 27.188 10.9073 27.1451 10.6185 27.0649C9.2737 26.6913 8.25837 25.5055 8.15308 24.051L7.48779 14.7679C7.487 14.7569 7.4864 14.7459 7.486 14.7349L7.21229 10.9158C7.07119 8.95927 8.6217 7.29523 10.5822 7.29523H15.881L16.3124 4.93407C16.5986 3.37147 18.2126 2.43427 19.7106 2.95902L22.1704 3.82274C22.6589 3.99428 22.9159 4.52937 22.7444 5.01789C22.5728 5.50642 22.0376 5.76338 21.5491 5.59184L19.0908 4.72858C18.6793 4.58459 18.2355 4.84205 18.1568 5.27144ZM10.5822 9.17023H15.5385L14.6941 13.7918C14.9756 13.9493 15.2446 14.1294 15.4974 14.332C15.616 14.4255 15.7284 14.5045 15.8433 14.5736C15.8519 14.5788 15.8605 14.5841 15.869 14.5896C16.0369 14.6981 16.2153 14.7945 16.4018 14.8783L17.4445 9.17023H19.1879C20.0716 9.17023 20.7648 9.92712 20.6875 10.8069L20.3266 14.8966C19.733 15.1545 19.0644 15.2884 18.3846 15.2884C17.6895 15.2884 17.0031 15.1484 16.4018 14.8783L15.3584 20.5888C15.2654 21.0981 14.777 21.4356 14.2678 21.3425C13.7584 21.2495 13.4209 20.7611 13.514 20.2518L14.6941 13.7918C14.1616 13.4939 13.5843 13.2766 12.9866 13.14C11.7597 12.8595 10.4478 12.9189 9.26418 13.3169L9.08245 10.7811C9.01959 9.91147 9.70917 9.17023 10.5822 9.17023Z" fill="#444A57"/>
</svg>
