<svg width="30" height="30" viewBox="0 0 30 30" fill="none" xmlns="http://www.w3.org/2000/svg">
<g clip-path="url(#clip0_2355_7625)">
<g filter="url(#filter0_b_2355_7625)">
<circle cx="15" cy="15" r="15" fill="#2B313D" fill-opacity="0.12"/>
</g>
<path fill-rule="evenodd" clip-rule="evenodd" d="M11.9812 15.8014C11.9812 17.4637 13.3347 18.8164 14.9997 18.8164C16.6647 18.8164 18.0183 17.4637 18.0183 15.8014C18.0183 14.1391 16.6647 12.7864 14.9997 12.7864C13.3347 12.7864 11.9812 14.1391 11.9812 15.8014ZM22.2474 12.0475L23.6712 13.2157C24.0546 13.5307 24.1113 14.0977 23.7954 14.482C23.6172 14.6989 23.3598 14.8114 23.0997 14.8114C22.899 14.8114 22.6965 14.7448 22.5291 14.6071L22.3905 14.4946L21.387 20.4688C21.1314 21.9889 19.8282 23.0914 18.2874 23.0914H11.7103C10.1713 23.0914 8.86716 21.9889 8.61156 20.4688L7.60806 14.4946L7.47126 14.6071C7.08696 14.923 6.51996 14.8672 6.20406 14.482C5.88906 14.0977 5.94486 13.5307 6.32916 13.2157L7.74756 12.052L7.74757 12.052C7.75026 12.0493 7.75296 12.0466 7.75656 12.0448L13.251 7.53668C14.2626 6.69968 15.7368 6.69788 16.7529 7.54028L22.2438 12.0448C22.2456 12.0457 22.2474 12.0475 22.2474 12.0475ZM13.3311 15.8009C13.3311 14.8829 14.0799 14.1359 14.9997 14.1359C15.9195 14.1359 16.6683 14.8829 16.6683 15.8009C16.6683 16.7189 15.9195 17.4659 14.9997 17.4659C14.0799 17.4659 13.3311 16.7189 13.3311 15.8009Z" fill="#2B313D"/>
</g>
<defs>
<filter id="filter0_b_2355_7625" x="-40" y="-40" width="110" height="110" filterUnits="userSpaceOnUse" color-interpolation-filters="sRGB">
<feFlood flood-opacity="0" result="BackgroundImageFix"/>
<feGaussianBlur in="BackgroundImageFix" stdDeviation="20"/>
<feComposite in2="SourceAlpha" operator="in" result="effect1_backgroundBlur_2355_7625"/>
<feBlend mode="normal" in="SourceGraphic" in2="effect1_backgroundBlur_2355_7625" result="shape"/>
</filter>
<clipPath id="clip0_2355_7625">
<rect width="30" height="30" fill="white"/>
</clipPath>
</defs>
</svg>
