<svg width="30" height="30" viewBox="0 0 30 30" fill="none" xmlns="http://www.w3.org/2000/svg">
<path fill-rule="evenodd" clip-rule="evenodd" d="M6.4975 3.4375C4.80741 3.4375 3.4375 4.80741 3.4375 6.4975V9.7525C3.4375 11.4426 4.80741 12.8125 6.4975 12.8125H23.5025C25.1926 12.8125 26.5625 11.4426 26.5625 9.7525V6.4975C26.5625 4.80741 25.1926 3.4375 23.5025 3.4375H6.4975ZM6.4975 17.1875C4.80741 17.1875 3.4375 18.5574 3.4375 20.2475V23.5025C3.4375 25.1926 4.80741 26.5625 6.4975 26.5625H9.7525C11.4426 26.5625 12.8125 25.1926 12.8125 23.5025V20.2475C12.8125 18.5574 11.4426 17.1875 9.7525 17.1875H6.4975ZM17.1875 20.2475C17.1875 18.5574 18.5574 17.1875 20.2475 17.1875H23.5025C25.1926 17.1875 26.5625 18.5574 26.5625 20.2475V23.5025C26.5625 25.1926 25.1926 26.5625 23.5025 26.5625H20.2475C18.5574 26.5625 17.1875 25.1926 17.1875 23.5025V20.2475Z" fill="#444A57"/>
</svg>
