<svg width="30" height="30" viewBox="0 0 30 30" fill="none" xmlns="http://www.w3.org/2000/svg">
<path fill-rule="evenodd" clip-rule="evenodd" d="M17.6322 4.84375H12.3722C11.8547 4.84375 11.4347 4.42375 11.4347 3.90625C11.4347 3.38875 11.8547 2.96875 12.3722 2.96875H17.6322C18.1497 2.96875 18.5697 3.38875 18.5697 3.90625C18.5697 4.42375 18.1497 4.84375 17.6322 4.84375ZM15.6498 17.4565L19.3248 13.7815C19.6998 13.419 19.6998 12.819 19.3248 12.4565C18.9623 12.094 18.3748 12.094 17.9998 12.4565L14.3248 16.1315C13.9623 16.494 13.9623 17.094 14.3248 17.4565C14.5123 17.644 14.7498 17.7315 14.9873 17.7315C15.2248 17.7315 15.4748 17.644 15.6498 17.4565ZM4.7998 16.8315C4.7998 11.2065 9.3748 6.63147 14.9998 6.63147C20.6248 6.63147 25.1998 11.2065 25.1998 16.8315C25.1998 22.4565 20.6248 27.0315 14.9998 27.0315C9.3748 27.0315 4.7998 22.4565 4.7998 16.8315Z" fill="#2B313D"/>
</svg>
