<svg width="30" height="30" viewBox="0 0 30 30" fill="none" xmlns="http://www.w3.org/2000/svg">
<path fill-rule="evenodd" clip-rule="evenodd" d="M21.298 14.1262H17.0896C16.5448 14.1262 16.102 13.6846 16.102 13.1398C16.102 12.5937 16.5448 12.1521 17.0896 12.1521H21.298C21.8428 12.1521 22.2844 12.5937 22.2844 13.1398C22.2844 13.6846 21.8428 14.1262 21.298 14.1262ZM21.298 18.577H18.6784C18.1336 18.577 17.692 18.1354 17.692 17.5906C17.692 17.0446 18.1336 16.603 18.6784 16.603H21.298C21.8428 16.603 22.2844 17.0446 22.2844 17.5906C22.2844 18.1354 21.8428 18.577 21.298 18.577ZM14.9692 20.2978L7.29042 20.3086C7.17162 20.3086 7.05762 20.2618 6.97362 20.179C6.89082 20.095 6.84402 19.981 6.84402 19.8634C6.84402 18.2398 8.16882 16.603 11.1292 16.603C14.0896 16.603 15.4156 18.235 15.4156 19.8526C15.4156 20.0986 15.2164 20.2978 14.9692 20.2978ZM11.1292 9.66335C12.6628 9.66335 13.9096 10.9101 13.9096 12.4437C13.9096 13.9774 12.6628 15.2254 11.1292 15.2254C9.59562 15.2254 8.34882 13.9774 8.34882 12.4437C8.34882 10.9101 9.59562 9.66335 11.1292 9.66335ZM20.4604 5.16095H8.70042C5.46042 5.16095 3.18042 7.56095 3.18042 10.9209V19.081C3.18042 22.441 5.46042 24.841 8.70042 24.841H20.4604C23.7004 24.841 25.9804 22.441 25.9804 19.081V10.9209C25.9804 7.56095 23.7004 5.16095 20.4604 5.16095Z" fill="#444A57"/>
</svg>
