<svg width="96" height="96" viewBox="0 0 96 96" fill="none" xmlns="http://www.w3.org/2000/svg">
<path fill-rule="evenodd" clip-rule="evenodd" d="M64.2947 36.8842C61.5815 36.8842 59.3684 34.6762 59.3684 31.9579C59.3583 30.6695 59.8686 29.4215 60.7983 28.4867C61.728 27.5469 62.9659 27.0316 64.2897 27.0316C67.008 27.0316 69.2261 29.2396 69.2261 31.9579C69.2261 34.6762 67.0131 36.8842 64.2947 36.8842ZM48 74.4859C36.5406 74.4859 27.2135 64.5423 27.2135 52.32C27.2135 50.9255 28.3453 49.7937 29.7398 49.7937H66.2703C67.6648 49.7937 68.7966 50.9255 68.7966 52.32C68.7966 64.5423 59.4695 74.4859 48 74.4859ZM26.5263 31.9579C26.5162 30.6695 27.0265 29.4215 27.9562 28.4867C28.8859 27.5469 30.1238 27.0316 31.4476 27.0316C34.1659 27.0316 36.384 29.2396 36.384 31.9579C36.384 34.6762 34.1709 36.8842 31.4526 36.8842C28.7394 36.8842 26.5263 34.6762 26.5263 31.9579ZM69.3069 0H26.6931C10.7267 0 0 11.2219 0 27.9208V68.0792C0 84.7781 10.7267 96 26.6931 96H69.3019C85.2682 96 96 84.7781 96 68.0792V27.9208C96 11.2219 85.2733 0 69.3069 0Z" fill="#CAD4DD"/>
</svg>
