<svg width="30" height="30" viewBox="0 0 30 30" fill="none" xmlns="http://www.w3.org/2000/svg">
<path d="M13.2445 3.95118C14.982 2.98764 17.1922 3.62071 18.1631 5.34267L27.451 21.462C27.6554 21.9431 27.7448 22.3344 27.7704 22.7408C27.8215 23.6904 27.4893 24.6134 26.8378 25.3237C26.1862 26.0315 25.3047 26.4494 24.3465 26.5H5.64301C5.24697 26.4759 4.85093 26.386 4.48043 26.2468C2.62797 25.4997 1.73367 23.3979 2.48744 21.576L11.8392 5.33128C12.1586 4.76024 12.6441 4.26771 13.2445 3.95118ZM14.9948 19.1817C14.3815 19.1817 13.8705 19.6881 13.8705 20.2971C13.8705 20.9036 14.3815 21.4114 14.9948 21.4114C15.608 21.4114 16.1063 20.9036 16.1063 20.2832C16.1063 19.6767 15.608 19.1817 14.9948 19.1817ZM14.9948 11.2822C14.3815 11.2822 13.8705 11.7747 13.8705 12.3837V15.9657C13.8705 16.5734 14.3815 17.0811 14.9948 17.0811C15.608 17.0811 16.1063 16.5734 16.1063 15.9657V12.3837C16.1063 11.7747 15.608 11.2822 14.9948 11.2822Z" fill="#2B313D"/>
</svg>
