<svg width="30" height="30" viewBox="0 0 30 30" fill="none" xmlns="http://www.w3.org/2000/svg">
<path fill-rule="evenodd" clip-rule="evenodd" d="M15.0515 9.58601H15.0431C14.7395 9.58601 14.4707 9.35921 14.4347 9.05801C14.2691 7.66361 14.6471 6.33281 15.5015 5.31041C16.3427 4.30001 17.5595 3.69761 18.9263 3.61121C19.2215 3.58721 19.4975 3.80081 19.5539 4.09841C19.8251 5.52761 19.5071 6.88841 18.6575 7.93001C17.8007 8.97881 16.5203 9.56561 15.0515 9.58601ZM21.1865 17.1563C21.4001 18.2555 22.0733 19.1771 23.0369 19.7039C23.7269 20.1047 23.8409 20.4131 23.5817 21.1439C23.0549 22.5803 22.2761 23.8871 21.2633 25.0427C20.3117 26.4275 18.3653 26.8283 16.8773 25.8983C15.9197 25.4507 14.7173 25.4723 13.7225 25.9943C13.2509 26.2763 12.7241 26.4119 12.1997 26.4119C11.2817 26.4131 10.3709 25.9955 9.77209 25.2167C8.63089 24.0203 7.69129 22.4951 7.09849 20.8547C6.57889 19.5287 6.31009 18.1283 6.30529 16.7039C6.20809 15.2579 6.59329 13.7591 7.39249 12.5207C8.80849 10.1722 11.8193 9.33104 14.2505 10.6018C14.8025 10.885 15.4733 10.897 16.0409 10.6282C16.6745 10.3354 17.3285 10.1302 17.9885 10.0162C19.8161 9.68744 21.6929 10.3774 22.8821 11.8066C22.9481 11.8798 23.1917 12.1535 23.1581 12.5327C23.1248 12.9153 22.8327 13.1461 22.7047 13.2473L22.7009 13.2503C21.4349 14.1491 20.8493 15.6767 21.1865 17.1563Z" fill="#2B313D"/>
</svg>
