<svg width="19" height="19" viewBox="0 0 19 19" fill="none" xmlns="http://www.w3.org/2000/svg">
<path fill-rule="evenodd" clip-rule="evenodd" d="M8.41792 18.0938C8.59334 18.1701 8.77619 18.0314 8.77619 17.8402V2.96619C8.77619 2.85967 8.71299 2.76459 8.62094 2.71089C7.42829 2.01711 5.54477 1.14097 3.34281 0.90263C2.57184 0.813857 1.79894 1.06377 1.22384 1.57904C0.657435 2.08562 0.333221 2.81221 0.333221 3.5716V13.5489C0.333221 14.9577 1.45157 16.1358 2.88062 16.2304C5.01502 16.3838 6.91785 17.2513 8.13558 17.9508C8.22744 18.0044 8.32172 18.0521 8.41792 18.0938ZM5.78665 8.14366C5.8735 8.17743 5.96323 8.19383 6.05201 8.19383C6.34052 8.19383 6.61359 8.02015 6.72552 7.73453C6.87219 7.36404 6.68886 6.94333 6.31736 6.79667L4.20901 5.96587C3.83847 5.82113 3.41777 6.00253 3.2711 6.37499C3.12443 6.74649 3.3068 7.16719 3.67926 7.31386L5.78665 8.14366ZM5.78472 12.4839C5.87157 12.5196 5.96227 12.536 6.05201 12.536C6.33955 12.536 6.61166 12.3633 6.72456 12.0796C6.87219 11.709 6.69079 11.2874 6.31929 11.1407L4.2119 10.3012C3.84233 10.1497 3.4197 10.3331 3.27207 10.7055C3.12347 11.0761 3.30487 11.4977 3.67637 11.6444L5.78472 12.4839ZM10.5818 18.0939C10.4063 18.1702 10.2235 18.0315 10.2235 17.8403V2.96689C10.2235 2.86036 10.2868 2.76532 10.3789 2.71187C11.5706 2.01713 13.4551 1.14098 15.658 0.90264C16.4309 0.818692 17.2 1.06475 17.7751 1.57905C18.3415 2.0866 18.6667 2.81222 18.6667 3.57161V13.5489C18.6667 14.9586 17.5464 16.1368 16.1173 16.2304C13.9848 16.3838 12.082 17.2513 10.8614 17.9528C10.7704 18.0056 10.677 18.0526 10.5818 18.0939Z" fill="#2B313D"/>
</svg>
