<svg width="39" height="16" viewBox="0 0 39 16" fill="none" xmlns="http://www.w3.org/2000/svg">
<path d="M0 9.2C0 12.3158 1.6 16 5.70526 16C11.3474 16 12.6316 8.16842 12.6316 5.34737C12.6316 2.58947 11.6632 0.147368 7.78947 0.147368C6.92632 0.147368 6.16842 0.505263 6.16842 0.505263C5.93684 0.273684 5.85263 0.105263 5.34737 0C2.75789 0.547368 0 5.45263 0 9.2ZM1.89474 10.1895C1.89474 7.13684 3.22105 5.2 3.2 5.2C3.41053 5.34737 4.02105 5.53684 4.25263 5.53684C4.31579 5.53684 4.33684 5.53684 4.33684 5.51579C4.8 3.72632 6 1.34737 8.52631 1.34737C9.91579 1.34737 10.4421 2.65263 10.4421 3.93684C10.4421 5.70526 9.43158 14.4842 4.84211 14.4842C2.90526 14.4632 1.89474 12.5684 1.89474 10.1895ZM17.5257 8.21053C17.2947 9.28421 16.9377 11.4947 16.9377 12.4C16.9377 14.1263 17.3787 15.6421 18.9117 15.6421C20.5077 15.6421 21.4737 14 21.4737 13.0947C21.4737 12.5684 20.9697 12.5263 20.9697 12.5263C20.7807 13.0737 20.3397 14.2105 19.5837 14.2105C18.9537 14.2105 18.6597 13.6842 18.6597 12.5895C18.6597 9.76842 19.8567 7.01053 20.0457 4.84211C20.1087 4.16842 19.0797 3.78947 18.4497 3.78947C18.2397 3.78947 18.0507 3.78947 17.9457 3.97895C16.6647 6.27368 15.8036 8.8 14.9426 11.1368H14.8586C14.8586 9.03158 15.4886 7.07368 15.7616 5.03158C15.8246 4.50526 15.2996 4.46316 15.0266 4.46316C13.6406 4.46316 13.0526 8.71579 13.0526 13.2421C13.0526 14.8632 13.3256 16 14.3546 16C14.8376 16 15.1316 15.6842 15.1316 15.6842C15.1106 13.6842 16.3077 10.0842 17.2527 8.21053H17.5257ZM21.8947 12.1474C21.8947 14.6105 23.8316 16 25.8947 16C28.8632 16 30.3158 13.0947 30.3158 11.3895C30.3158 10.8421 29.9579 10.4421 29.5368 10.4421C29.1579 10.4421 29.1579 10.6526 29.1579 10.6526C29.1579 11.9579 27.4947 14.4211 25.4316 14.4211C24.0632 14.4211 23.5789 13.7263 23.5789 12.8C23.5789 11.2 24.0632 10.1684 24.0632 10.1684C24.0632 10.1684 24.4632 10.9895 25.6211 10.9895C27.7474 10.9895 28.6737 8.69474 28.6737 6.18947C28.6737 4.37895 27.4947 3.78947 26.4842 3.78947C24.1053 3.78947 21.8947 8.84211 21.8947 12.1474ZM24.3789 9.32632C24.6737 7.89474 25.4316 6.27368 26.0632 5.2C26.2316 4.92632 26.3579 4.84211 26.4632 4.84211C26.5895 4.84211 26.7789 4.94737 26.7789 5.76842C26.7789 7.57895 25.9789 9.81053 25.0316 9.81053C24.5053 9.81053 24.3789 9.32632 24.3789 9.32632ZM35.4286 3.85714C35.5108 3.86258 37.088 4.04633 36.9053 4.83892C36.6663 5.81512 36.3821 6.20527 36.1189 7.48693L36.0586 7.78319C35.6294 9.90928 35.2715 12.0796 35.2842 13.2231C35.2842 14.1117 35.6 14.556 35.9368 14.556C37.2632 14.556 37.6632 11.9347 37.7263 10.9572C37.7263 10.9572 38.5263 10.7129 38.5263 11.6903C38.5263 13.2231 37.7474 16 35.3474 16C34.1053 16 33.4737 15.0003 33.4737 13.0899C33.4737 11.9304 33.6855 10.1656 33.9576 8.42652L34.001 8.15223C34.3157 6.18934 34.6973 5.15903 34.9263 4.26134C35.0105 3.99476 35.2812 3.85714 35.4286 3.85714ZM33.1056 0C33.6346 0 34.5868 0.547962 34.5233 0.906244C33.7404 5.20563 32.9575 9.84223 32.6613 14.2681C32.619 14.816 32.5767 15.364 32.5555 15.912C32.3228 16.2492 30.9051 15.5326 30.7993 15.1954C30.6724 14.9003 30.7782 14.0152 30.7782 13.3829C30.9898 10.2427 32.0054 3.66713 32.7671 0.189679C32.8094 0.0210754 32.9999 0 33.1056 0ZM36.8842 0.285714C37.5818 0.285714 38.0428 0.856111 38.0428 1.59351C38.0428 2.33092 37.5818 2.90132 36.8842 2.90132C36.1866 2.90132 35.7111 2.35831 35.7111 1.6209C35.7111 0.883498 36.1866 0.285714 36.8842 0.285714Z" fill="#2B313D" fill-opacity="0.54"/>
</svg>
