<svg width="30" height="30" viewBox="0 0 30 30" fill="none" xmlns="http://www.w3.org/2000/svg">
<path fill-rule="evenodd" clip-rule="evenodd" d="M15.0043 18.6554H14.9981C13.6104 18.6529 12.3063 18.1093 11.3276 17.1256C10.3489 16.1419 9.81158 14.8366 9.81407 13.449V8.18522C9.81407 5.32643 12.1405 3 14.9993 3C17.8593 3 20.1858 5.32643 20.1858 8.18522V13.4502C20.192 16.3128 17.8668 18.6479 15.0043 18.6554ZM23.9858 12.5527C24.5019 12.5527 24.9196 12.9691 24.9208 13.4853C24.9333 18.6518 20.9799 22.9157 15.9355 23.4006V26.0649C15.9355 26.5811 15.5179 27 15.0005 27C14.4843 27 14.0654 26.5811 14.0654 26.0649V23.4019C11.7614 23.1825 9.62699 22.1813 7.97505 20.5219C6.10119 18.6393 5.07387 16.1396 5.08011 13.4853C5.08135 12.9691 5.50026 12.5527 6.01517 12.5527H6.01766C6.53381 12.554 6.95147 12.9741 6.95023 13.4903C6.94524 15.6446 7.77931 17.6743 9.30034 19.2016C10.8201 20.7289 12.8424 21.5717 14.9967 21.5792H15.0005C15.0015 21.5792 15.0024 21.5794 15.0032 21.5796C15.0043 21.58 15.0053 21.5804 15.0067 21.5804C19.4501 21.5667 23.0607 17.9387 23.0507 13.4903C23.0495 12.9729 23.4671 12.554 23.9833 12.5527H23.9858Z" fill="#2B313D"/>
</svg>
