<svg width="30" height="30" viewBox="0 0 30 30" fill="none" xmlns="http://www.w3.org/2000/svg">
<path fill-rule="evenodd" clip-rule="evenodd" d="M14.9993 2C12.8554 2 10.9131 2.87299 9.50994 4.28419C8.05956 5.74275 7.39007 7.77017 7.39007 9.76071L7.40234 10.8616C5.35967 11.9044 4 14.0416 4 16.4822C4 19.9687 6.82802 22.7856 10.3065 22.7856H19.7066C23.1716 22.7856 26 19.9678 26 16.4822C26 14.0393 24.6242 11.9135 22.589 10.8615L22.6201 9.83245L22.6204 9.81197C22.6204 7.54815 21.7388 5.26458 19.9428 3.77852C18.5988 2.66819 16.8753 2 14.9993 2ZM16.0112 11.6072C16.0112 11.0478 15.5585 10.5943 14.9999 10.5943C14.4414 10.5943 13.9885 11.0478 13.9885 11.6072V15.7486L12.8707 14.6289C12.4757 14.2333 11.8353 14.2333 11.4404 14.6289C11.0455 15.0244 11.0455 15.6658 11.4404 16.0614L13.9885 18.6137V26.987C13.9885 27.5465 14.4414 28 14.9999 28C15.5585 28 16.0112 27.5465 16.0112 26.987V18.2459C16.013 18.2123 16.013 18.1785 16.0112 18.1448V16.56L18.5607 14.0065C18.9557 13.6109 18.9557 12.9695 18.5607 12.5739C18.1658 12.1784 17.5254 12.1784 17.1304 12.5739L16.0112 13.6949V11.6072Z" fill="#2B313D"/>
</svg>
