<svg width="30" height="30" viewBox="0 0 30 30" fill="none" xmlns="http://www.w3.org/2000/svg">
<path fill-rule="evenodd" clip-rule="evenodd" d="M19.9938 3.75H10.0062C6.26408 3.75 3.75 6.38013 3.75 10.2939V19.7061C3.75 23.6199 6.26408 26.25 10.0062 26.25H19.9926C23.7347 26.25 26.25 23.6199 26.25 19.7061V10.2939C26.25 6.38013 23.7359 3.75 19.9938 3.75ZM8 14.993C8 12.6775 9.672 11 12.0425 11C13.2754 11 14.3838 11.49 15.0645 12.3256C15.2362 12.5362 15.1574 12.8404 14.9257 12.9823L14.4368 13.2818C14.2061 13.4231 13.9087 13.35 13.7189 13.1572C13.2913 12.7227 12.7115 12.474 12.0315 12.474C10.6345 12.474 9.6005 13.497 9.6005 14.993C9.606 16.5385 10.673 17.512 12.0315 17.512C12.7016 17.512 13.2732 17.2741 13.7115 16.8464C13.912 16.6508 14.2259 16.5904 14.4533 16.754L14.8973 17.0734C15.1175 17.2317 15.1737 17.5396 14.9923 17.7411C14.2942 18.5164 13.261 18.986 12.0425 18.986C9.672 18.986 8 17.3085 8 14.993ZM21.1586 13.5135C21.4347 13.5135 21.6586 13.7374 21.6586 14.0135V18.343C21.6586 18.6191 21.4347 18.843 21.1586 18.843H20.4097C20.3249 18.843 20.2561 18.7742 20.2561 18.6893C20.2561 18.5444 20.0621 18.4707 19.9487 18.5608C19.6247 18.8184 19.2014 18.9805 18.6611 18.9805C17.1926 18.9805 16.0816 17.776 16.0816 16.1755C16.0816 14.575 17.1926 13.3705 18.6611 13.3705C19.2032 13.3705 19.6245 13.5337 19.9496 13.795C20.0627 13.8859 20.2561 13.8125 20.2561 13.6674C20.2561 13.5824 20.325 13.5135 20.41 13.5135H21.1586ZM20.3001 16.1755C20.3001 15.334 19.7446 14.707 18.9251 14.707C18.0836 14.707 17.5501 15.3615 17.5501 16.1755C17.5501 16.9895 18.0836 17.644 18.9251 17.644C19.7446 17.644 20.3001 17.017 20.3001 16.1755Z" fill="#2B313D"/>
</svg>
