<svg width="30" height="30" viewBox="0 0 30 30" fill="none" xmlns="http://www.w3.org/2000/svg">
<path fill-rule="evenodd" clip-rule="evenodd" d="M15.9231 5.65976C15.9231 6.17917 15.5096 6.60072 15 6.60072C14.4905 6.60072 14.077 6.17917 14.077 5.65976V3.94095C14.077 3.42155 14.4905 3 15 3C15.5096 3 15.9231 3.42155 15.9231 3.94095V5.65976ZM20.7478 16.0726H9.25363C8.91393 16.0726 8.63824 15.7916 8.63824 15.4453C8.63824 11.8685 11.4924 8.95905 15.0001 8.95905C18.5091 8.95905 21.3632 11.8685 21.3632 15.4453C21.3632 15.7916 21.0875 16.0726 20.7478 16.0726ZM26.0769 14.2913H24.3883C23.8788 14.2913 23.4652 14.7129 23.4652 15.2323C23.4652 15.7517 23.8788 16.1732 24.3883 16.1732H26.0769C26.5865 16.1732 27 15.7517 27 15.2323C27 14.7129 26.5865 14.2913 26.0769 14.2913ZM6.53478 15.2323C6.53478 15.7517 6.12124 16.1732 5.6117 16.1732H3.92308C3.41354 16.1732 3 15.7517 3 15.2323C3 14.7129 3.41354 14.2913 3.92308 14.2913H5.6117C6.12124 14.2913 6.53478 14.7129 6.53478 15.2323ZM21.6401 9.41119C21.8765 9.41119 22.1128 9.3196 22.2925 9.13517L23.4863 7.9182C23.8469 7.55061 23.8469 6.95467 23.4863 6.58832C23.1269 6.22072 22.5423 6.22072 22.1817 6.58832L20.9878 7.80529C20.6272 8.17289 20.6272 8.76757 20.9878 9.13517C21.1675 9.3196 21.4038 9.41119 21.6401 9.41119ZM8.36207 9.41165C8.12576 9.41165 7.88945 9.31881 7.70976 9.13563L6.51591 7.91867C6.15529 7.55107 6.15529 6.95513 6.51591 6.58753C6.87652 6.21993 7.46114 6.21993 7.82176 6.58753L9.01561 7.8045C9.37622 8.1721 9.37622 8.76929 9.01561 9.13563C8.83468 9.31881 8.59838 9.41165 8.36207 9.41165ZM25.2043 19.657C24.9089 19.7549 24.659 19.8728 24.4117 19.9945C23.9723 20.2078 23.6252 20.3759 22.856 20.3759C22.088 20.3759 21.7396 20.2066 21.299 19.992L21.2939 19.9895C20.7717 19.7365 20.1234 19.4224 18.9335 19.4224C17.7458 19.4224 17.0996 19.7373 16.579 19.992L16.5777 19.9927C16.1377 20.2069 15.7905 20.3759 15.0233 20.3759C14.2639 20.3759 13.9353 20.2153 13.4812 19.9933C12.9618 19.7386 12.3156 19.4224 11.1267 19.4224C9.94019 19.4224 9.29281 19.7373 8.77219 19.992C8.3328 20.2066 7.98326 20.3759 7.21526 20.3759C6.42887 20.3759 6.09495 20.2139 5.63449 19.9904L5.63002 19.9883L5.60367 19.9756C5.45844 19.9057 5.31155 19.8349 5.15371 19.7687C4.67864 19.5717 4.14202 19.8038 3.94879 20.2831C3.75679 20.7636 3.98202 21.3131 4.45463 21.5113C4.58879 21.5665 4.71187 21.6268 4.83371 21.687L4.83516 21.6877C5.38496 21.9548 6.00893 22.2578 7.21526 22.2578C8.40296 22.2578 9.05034 21.9429 9.56973 21.6895C10.0103 21.4737 10.3587 21.3043 11.1267 21.3043C11.8935 21.3043 12.2408 21.4739 12.6783 21.6875L12.6824 21.6895C13.1993 21.9429 13.8442 22.2578 15.0233 22.2578C16.209 22.2578 16.8551 21.9433 17.3756 21.69L17.3766 21.6895C17.8172 21.4737 18.1642 21.3043 18.9335 21.3043C19.7083 21.3043 20.0591 21.4747 20.503 21.6903L20.5039 21.6908L20.5055 21.6915C21.0247 21.9436 21.6719 22.2578 22.856 22.2578C24.0437 22.2578 24.6886 21.9442 25.2067 21.692L25.2405 21.6755C25.4066 21.5942 25.5746 21.512 25.7729 21.4474C26.2578 21.2868 26.5237 20.7561 26.3661 20.2618C26.2098 19.7674 25.6892 19.4964 25.2043 19.657ZM21.3969 24.7317C21.664 24.8621 21.8745 24.9638 22.1563 25.029C22.6536 25.1444 22.9649 25.6488 22.8517 26.1556C22.7385 26.6612 22.2486 26.9799 21.7465 26.8645C21.2681 26.7532 20.9157 26.5821 20.6063 26.4319L20.6031 26.4304C20.1612 26.2159 19.8129 26.0477 19.0462 26.0477C18.2782 26.0477 17.9298 26.2171 17.4892 26.4317C16.9698 26.6851 16.3225 27 15.1348 27C13.9476 27 13.3003 26.6841 12.781 26.4308L12.7803 26.4304C12.3261 26.2071 11.9987 26.0477 11.2381 26.0477C10.483 26.0477 10.1371 26.2156 9.70067 26.4274L9.69965 26.4279L9.68775 26.4337C9.37806 26.5841 9.02767 26.7542 8.5501 26.8645C8.05287 26.9812 7.55933 26.6612 7.4461 26.1544C7.33287 25.6488 7.64425 25.1444 8.14149 25.029C8.42456 24.9638 8.63626 24.8609 8.90334 24.7304C9.42026 24.4782 10.064 24.1658 11.2381 24.1658C12.4166 24.1658 13.0602 24.4798 13.5767 24.7318L13.5791 24.7329C14.0197 24.9487 14.3668 25.1181 15.1348 25.1181C15.904 25.1181 16.2523 24.9487 16.6929 24.7342C17.2123 24.4807 17.8597 24.1658 19.0462 24.1658C20.2288 24.1658 20.8748 24.4788 21.3951 24.7308L21.3969 24.7317Z" fill="#2B313D"/>
</svg>
