<svg width="30" height="30" viewBox="0 0 30 30" fill="none" xmlns="http://www.w3.org/2000/svg">
<path fill-rule="evenodd" clip-rule="evenodd" d="M26 3.92297C26 3.60789 25.8389 3.31373 25.5732 3.14512C25.3087 2.97527 24.9753 2.95312 24.6887 3.08604C20.5741 4.99867 16.2491 5.79252 11.8491 5.4479C11.5884 5.42944 11.3387 5.51559 11.1517 5.69036C10.961 5.86513 10.854 6.11129 10.854 6.36852V19.1009C10.1455 18.5975 9.2832 18.2947 8.34834 18.2947C5.95091 18.2947 4 20.248 4 22.648C4 25.048 5.95091 27 8.34834 27C10.7433 27 12.6905 25.0541 12.6979 22.6603C12.6979 22.6554 12.6991 22.6517 12.6991 22.648V11.8122C13.0829 11.8282 13.4679 11.8578 13.8493 11.8578C17.3661 11.8578 20.8189 11.171 24.1549 9.81223V16.6566C23.4451 16.1532 22.5841 15.8504 21.6492 15.8504C19.2518 15.8504 17.3009 17.8036 17.3009 20.2037C17.3009 22.6037 19.2518 24.5557 21.6492 24.5557C24.0479 24.5557 26 22.6037 26 20.2037V3.92297Z" fill="#2B313D"/>
</svg>
