<svg width="30" height="30" viewBox="0 0 30 30" fill="none" xmlns="http://www.w3.org/2000/svg">
<path fill-rule="evenodd" clip-rule="evenodd" d="M15.9485 4.1366C19.4573 5.9738 21.9677 8.4278 23.4089 11.4278C25.0649 14.6522 25.1273 18.5954 23.5637 21.7034C22.3913 24.0314 20.4425 25.6526 18.0053 26.3654C18.8285 25.8854 19.5329 25.1762 20.0009 24.2822C21.0161 22.3454 20.5841 20.1386 18.8765 18.5222C18.7001 18.3554 18.4625 18.269 18.2237 18.2762C17.9825 18.2858 17.7533 18.3914 17.5913 18.5702C17.4317 18.7466 17.2193 19.013 16.9877 19.3046C16.8233 19.5134 16.5809 19.8206 16.3577 20.0786C15.7985 18.7982 15.9329 16.9922 16.0565 16.2998C16.1201 15.9434 15.9641 15.5822 15.6605 15.3854C15.3557 15.1874 14.9633 15.191 14.6657 15.395C14.3765 15.5918 11.8204 17.3582 11.0224 19.0022C10.1644 20.6762 10.1344 22.7174 10.9456 24.3326C11.59 25.6154 12.6881 26.4674 14.0177 26.8226C10.8472 26.597 8.02484 24.8138 6.43724 21.8258C4.40924 18.0074 5.14724 13.589 8.32004 10.5686C8.61884 10.271 9.64003 9.3122 10.108 8.9786C10.2388 8.885 10.4032 8.849 10.5616 8.8778C10.72 8.9054 10.8604 8.9966 10.9504 9.1286C11.9332 10.5602 12.4336 12.0842 12.4432 13.667C12.8237 13.5446 13.1681 13.3034 13.4861 12.9398C14.9345 11.291 15.4325 7.4786 15.0749 4.7462C15.0461 4.5242 15.1421 4.3034 15.3269 4.1762C15.5117 4.0478 15.7493 4.0322 15.9485 4.1366ZM14.155 18.0708C14.197 19.2984 14.4658 20.8164 15.3886 21.9132C15.5638 22.1208 15.8746 22.266 16.1974 22.284C16.8682 22.2744 17.3878 21.6948 18.271 20.5836C18.8494 21.4872 18.907 22.494 18.4078 23.4468C17.821 24.564 16.4158 25.5216 14.815 25.188C13.5298 24.9744 12.8758 24.1656 12.5554 23.5248C11.995 22.4112 12.0226 20.9892 12.6274 19.8156L12.6382 19.794C12.8806 19.2888 13.495 18.6504 14.155 18.0708Z" fill="#2B313D"/>
</svg>
