<svg width="30" height="30" viewBox="0 0 30 30" fill="none" xmlns="http://www.w3.org/2000/svg">
<path fill-rule="evenodd" clip-rule="evenodd" d="M7.32 12.492C7.32 12.984 7.716 13.392 8.22 13.392H18.408C18.912 13.392 19.308 12.984 19.308 12.492C19.308 11.988 18.912 11.592 18.408 11.592H8.22C7.716 11.592 7.32 11.988 7.32 12.492ZM23.3034 15.3612C22.5702 15.099 21.7866 14.964 20.976 14.964C17.064 14.964 13.884 18.132 13.884 22.044C13.884 23.3903 14.2551 24.6414 14.9124 25.7128C15.0143 25.8787 14.8986 26.1 14.7039 26.1H8.748C5.148 26.1 3 23.976 3 20.4V10.62C3 7.88046 4.32497 6.02422 6.6148 5.32666C6.76436 5.28109 6.912 5.39575 6.912 5.55211V7.308C6.912 7.812 7.308 8.208 7.812 8.208C7.88655 8.208 7.95165 8.1891 8.02407 8.16807C8.03325 8.1654 8.04255 8.1627 8.052 8.16V3.9C8.052 3.408 8.46 3 8.952 3C9.444 3 9.852 3.408 9.852 3.9V5.004H15.396C15.5285 5.004 15.636 5.11146 15.636 5.244V7.308C15.636 7.812 16.044 8.208 16.536 8.208C16.62 8.208 16.704 8.184 16.776 8.16V3.9C16.776 3.408 17.184 3 17.676 3C18.18 3 18.576 3.408 18.576 3.9V5.064C20.052 5.184 21.288 5.676 22.152 6.54C23.124 7.524 23.64 8.928 23.64 10.62V15.1308C23.64 15.3024 23.4649 15.4189 23.3034 15.3612ZM22.4272 24.1612C22.7344 24.1612 23.032 24.004 23.2012 23.7232C23.4556 23.296 23.3164 22.744 22.8892 22.4896L21.8464 21.8656V20.4724C21.8464 19.9756 21.4432 19.5724 20.9464 19.5724C20.4496 19.5724 20.0464 19.9756 20.0464 20.4724V22.3768C20.0464 22.6936 20.212 22.9876 20.4844 23.1484L21.9676 24.034C22.1116 24.1204 22.2712 24.1612 22.4272 24.1612ZM15.688 22.0456C15.688 19.1308 18.058 16.7596 20.9728 16.7596C23.8876 16.7596 26.2588 19.1308 26.2588 22.0456C26.2588 24.9592 23.8876 27.3304 20.9728 27.3304C18.058 27.3304 15.688 24.9592 15.688 22.0456Z" fill="#2B313D"/>
</svg>
