<svg width="30" height="30" viewBox="0 0 30 30" fill="none" xmlns="http://www.w3.org/2000/svg">
<path fill-rule="evenodd" clip-rule="evenodd" d="M15.9462 27.1785C15.1385 27.3928 14.1769 27.5 13.0615 27.5C11.9385 27.5 10.9769 27.3928 10.1769 27.1785C9.37692 26.9715 8.76154 26.6722 8.33077 26.2805C7.9 25.8962 7.68462 25.4342 7.68462 24.8947V19.0935C7.68462 18.7714 7.68462 18.6104 7.65 18.4823C7.61366 18.3478 7.58142 18.2793 7.50096 18.1655C7.42431 18.0572 7.26076 17.9219 6.93366 17.6513L6.93366 17.6513C6.29624 17.1239 5.76964 16.4527 5.35385 15.6375C4.78462 14.514 4.5 13.265 4.5 11.8902C4.5 10.0129 4.89616 8.36844 5.68846 6.95676C6.48077 5.54509 7.58846 4.45122 9.01154 3.67517C10.4269 2.89172 12.0808 2.5 13.9731 2.5C15.85 2.5 17.4962 2.88064 18.9115 3.64191C20.3269 4.39579 21.4269 5.45639 22.2115 6.82372C22.9885 8.19106 23.3769 9.78751 23.3769 11.6131C23.3769 11.857 23.3692 12.1009 23.3538 12.3448C23.3308 12.5887 23.2962 12.8363 23.25 13.0876L25.2 16.4357C25.4 16.7757 25.5 17.0972 25.5 17.4002C25.5 17.6885 25.4 17.9139 25.2 18.0765C25 18.2391 24.7115 18.3204 24.3346 18.3204H23.7115C23.6038 18.3204 23.5192 18.35 23.4577 18.4091C23.3962 18.4608 23.3654 18.531 23.3654 18.6197V22.1452C23.3654 22.6035 23.2462 22.9287 23.0077 23.1208C22.7692 23.313 22.4269 23.3869 21.9808 23.3426L18.8538 23.01C18.7308 22.9952 18.6308 23.0174 18.5538 23.0765C18.4692 23.143 18.4269 23.2391 18.4269 23.3647V24.8947C18.4269 25.4342 18.2154 25.8962 17.7923 26.2805C17.3615 26.6722 16.7462 26.9715 15.9462 27.1785ZM18.4969 11.4215C19.0479 10.9218 19.3234 10.2676 19.3234 9.45905C19.3234 8.97055 19.1902 8.51012 18.9238 8.07777C18.7062 7.73251 18.4306 7.44634 18.0972 7.21924C18.0972 7.21905 18.0972 7.21887 18.0972 7.21868C18.0972 6.69648 17.8944 6.26132 17.4886 5.91319C17.0829 5.56506 16.5773 5.391 15.9718 5.391C15.6225 5.391 15.2911 5.45129 14.9775 5.57186C14.9611 5.55633 14.9443 5.54096 14.9272 5.52576C14.4731 5.12148 13.9069 4.91934 13.2287 4.91934C12.9078 4.91934 12.605 4.9783 12.3204 5.09621C12.0297 5.21413 11.7845 5.37696 11.5847 5.58472C11.5302 5.57349 11.4757 5.56506 11.4212 5.55945C11.3667 5.55383 11.3182 5.55103 11.2758 5.55103C10.8338 5.55103 10.4341 5.6521 10.0769 5.85424C9.71356 6.05638 9.42896 6.33151 9.22307 6.67964C9.11466 6.85772 9.03397 7.04757 8.98101 7.24916C8.44593 7.35569 7.9998 7.58135 7.64262 7.92616C7.19453 8.34729 6.97048 8.86667 6.97048 9.48432C6.97048 10.0594 7.13078 10.5371 7.45136 10.9175C7.44548 10.9861 7.4396 11.0558 7.43371 11.1267C7.41555 11.3457 7.40646 11.6124 7.40646 11.9268C7.40646 12.7073 7.57904 13.3474 7.9242 13.8472C8.2633 14.3469 8.70231 14.5968 9.24124 14.5968C9.61062 14.5968 9.93155 14.4676 10.204 14.2093C10.4765 13.9454 10.6552 13.6029 10.7399 13.1818H10.858H10.967C11.5423 13.1818 12.0146 13.0302 12.384 12.727C12.4032 12.7112 12.4219 12.6952 12.4402 12.6789C12.5489 12.7037 12.6604 12.7253 12.7745 12.7438C13.0107 12.7775 13.2408 12.7944 13.4649 12.7944C13.9796 12.7944 14.4579 12.7073 14.9 12.5333C15.1816 12.4208 15.4265 12.2803 15.6349 12.1116C15.8525 12.1457 16.0829 12.1627 16.326 12.1627C17.2222 12.1627 17.9458 11.9156 18.4969 11.4215ZM12.9158 11.8324C12.9306 11.7438 12.938 11.6518 12.938 11.5562C12.938 11.1407 12.8351 10.8067 12.6292 10.554C12.4233 10.3013 12.172 10.0879 11.8753 9.91387C11.5726 9.7398 11.2728 9.56855 10.9761 9.4001C10.6733 9.22603 10.422 9.02109 10.2222 8.78526C10.0163 8.54943 9.91339 8.2406 9.91339 7.85878C9.91339 7.46574 10.0557 7.14007 10.3403 6.88178C10.6188 6.61787 10.964 6.48592 11.3758 6.48592C11.4363 6.48592 11.4969 6.48873 11.5574 6.49434C11.618 6.49996 11.6755 6.51119 11.73 6.52803C11.948 6.57295 12.0903 6.54207 12.1569 6.43539C12.2356 6.25571 12.3749 6.11253 12.5747 6.00584C12.7745 5.89354 12.9925 5.83739 13.2287 5.83739C13.6344 5.84301 13.9705 5.96654 14.2369 6.20798C14.4973 6.44381 14.6366 6.74983 14.6547 7.12603C14.6608 7.26079 14.7092 7.37028 14.8001 7.45451C14.8909 7.53312 15.0059 7.57242 15.1452 7.57242C15.2966 7.57242 15.4177 7.5275 15.5085 7.43766C15.5994 7.34782 15.6448 7.23271 15.6448 7.09234C15.635 6.83334 15.59 6.59364 15.5098 6.37325C15.6613 6.33045 15.8183 6.30905 15.9809 6.30905C16.3078 6.30905 16.5773 6.39608 16.7892 6.57015C17.0012 6.7386 17.1072 6.95477 17.1072 7.21868C17.1072 7.46574 17.0194 7.66507 16.8437 7.81667C16.6681 7.96828 16.432 8.04408 16.1353 8.04408C16.0021 8.04408 15.887 8.09181 15.7901 8.18726C15.6872 8.2771 15.6357 8.38379 15.6357 8.50731C15.6357 8.63084 15.6872 8.74034 15.7901 8.83579C15.8931 8.92563 16.0081 8.97055 16.1353 8.97055C16.7226 8.97055 17.198 8.81052 17.5613 8.49047C17.655 8.40507 17.7364 8.31291 17.8055 8.21399C17.905 8.31096 17.9932 8.41996 18.07 8.54101C18.2456 8.82175 18.3334 9.12777 18.3334 9.45905C18.3334 9.99248 18.1487 10.422 17.7793 10.7477C17.4099 11.0734 16.9225 11.2362 16.3169 11.2362C15.7296 11.2362 15.2572 11.0986 14.9 10.8235C14.5367 10.5427 14.355 10.1722 14.355 9.71173C14.355 9.42536 14.4458 9.20077 14.6275 9.03793C14.7304 8.94809 14.8182 8.87229 14.8909 8.81052C14.9636 8.74314 14.9999 8.64207 14.9999 8.50731C14.9999 8.3894 14.9545 8.29114 14.8636 8.21253C14.7728 8.13392 14.6578 8.09461 14.5185 8.09461C14.355 8.09461 14.1854 8.16199 14.0098 8.29675C13.8673 8.4095 13.748 8.54244 13.6518 8.69557C13.4628 8.6419 13.3127 8.56512 13.2014 8.4652C13.0016 8.29114 12.9047 8.02443 12.9108 7.66507C12.9108 7.53031 12.8623 7.41801 12.7655 7.32817C12.6686 7.23833 12.5535 7.19341 12.4203 7.19341C12.2871 7.19341 12.169 7.24114 12.0661 7.33659C11.9631 7.42643 11.9117 7.53312 11.9117 7.65665C11.9117 8.22376 12.0751 8.67857 12.4021 9.02109C12.6437 9.27462 12.9692 9.45978 13.3788 9.57658C13.3756 9.62635 13.374 9.67701 13.374 9.72857C13.374 10.4585 13.6465 11.0481 14.1915 11.4973C14.2686 11.56 14.3489 11.6183 14.4327 11.6721C14.431 11.6728 14.4293 11.6735 14.4277 11.6742C14.1067 11.8033 13.7555 11.8679 13.374 11.8679C13.2239 11.8679 13.0711 11.856 12.9158 11.8324ZM8.40729 11.5764C8.40011 11.6826 8.39652 11.7938 8.39652 11.91C8.39652 12.4266 8.48129 12.8505 8.65084 13.1818C8.82039 13.5131 9.01719 13.6787 9.24124 13.6787C9.44107 13.6787 9.60153 13.572 9.72264 13.3587C9.84375 13.1453 9.9043 12.8702 9.9043 12.5333C9.9043 12.4041 9.97999 12.3395 10.1314 12.3395C10.198 12.3395 10.2676 12.3423 10.3403 12.348H10.531C10.9912 12.348 11.3394 12.2778 11.5756 12.1374C11.8057 11.997 11.9207 11.7977 11.9207 11.5394C11.9207 11.2474 11.8208 11.0144 11.621 10.8403C11.4151 10.6663 11.1638 10.5062 10.8671 10.3603C10.5643 10.2143 10.2646 10.0486 9.96788 9.86333C9.66512 9.67242 9.41382 9.41975 9.21399 9.10531C9.05324 8.85981 8.95525 8.55269 8.92001 8.18396C8.71984 8.23932 8.54535 8.33307 8.39652 8.4652C8.10586 8.71226 7.96053 9.05197 7.96053 9.48432C7.96053 9.92229 8.121 10.2648 8.44193 10.5119C8.75681 10.7589 9.18069 10.8628 9.71356 10.8235C9.85283 10.8123 9.97091 10.8544 10.0678 10.9498C10.1647 11.0397 10.2131 11.1492 10.2131 11.2783C10.2131 11.4018 10.1707 11.5085 10.086 11.5984C9.99513 11.6826 9.87705 11.7303 9.73172 11.7415C9.23236 11.7722 8.79088 11.7172 8.40729 11.5764Z" fill="#2B313D"/>
</svg>
