<svg width="30" height="30" viewBox="0 0 30 30" fill="none" xmlns="http://www.w3.org/2000/svg">
<path fill-rule="evenodd" clip-rule="evenodd" d="M15.0001 27C6.54698 27 2.73237 17.3533 6.38398 11.4869C9.78541 6.46768 15.0001 3 15.0001 3C15.0001 3 20.2145 6.46768 23.6161 11.4869C27.2676 17.3533 23.453 27 15.0001 27ZM11.2329 17.7949C11.0091 17.2176 10.3719 16.936 9.80964 17.1656C9.24738 17.3955 8.973 18.0497 9.19678 18.627C9.93102 20.521 11.583 22.1318 13.9491 22.4098C14.5503 22.4804 15.0934 22.0372 15.1623 21.4199C15.2311 20.8026 14.7994 20.245 14.1983 20.1743C12.7434 20.0034 11.7117 19.03 11.2329 17.7949Z" fill="#2B313D"/>
</svg>
