<svg width="30" height="30" viewBox="0 0 30 30" fill="none" xmlns="http://www.w3.org/2000/svg">
<path fill-rule="evenodd" clip-rule="evenodd" d="M15.0022 2.92871C10.8769 2.92871 7.15698 4.5499 4.46634 6.82471C1.80512 9.07466 0.00463867 12.0987 0.00463867 15.0024C0.00463867 17.9061 1.80512 20.9301 4.46634 23.1801C7.15698 25.4549 10.8769 27.0761 15.0022 27.0761C19.1268 27.0761 22.8467 25.4563 25.5375 23.1819C28.1992 20.9324 29.9999 17.9084 29.9999 15.0024C29.9999 12.0965 28.1992 9.07241 25.5375 6.8229C22.8467 4.54863 19.1268 2.92871 15.0022 2.92871ZM2.25384 15.0024C2.25384 12.9879 3.55876 10.5374 5.9185 8.54232C8.24882 6.57214 11.4655 5.17791 15.0022 5.17791C18.5386 5.17791 21.7552 6.57115 24.0857 8.54075C26.4454 10.5351 27.7507 12.9856 27.7507 15.0024C27.7507 17.0192 26.4454 19.4696 24.0857 21.4641C21.7552 23.4336 18.5386 24.8269 15.0022 24.8269C11.4655 24.8269 8.24882 23.4327 5.9185 21.4626C3.55876 19.4674 2.25384 17.017 2.25384 15.0024ZM11.3854 15.0024C11.3854 13.0042 13.005 11.3857 15.0021 11.3857C16.9994 11.3857 18.6188 13.0042 18.6188 15.0024C18.6188 16.9994 16.9991 18.6191 15.0021 18.6191C13.0051 18.6191 11.3854 16.9994 11.3854 15.0024ZM15.0021 9.13652C11.7632 9.13652 9.13621 11.7615 9.13621 15.0024C9.13621 18.2416 11.763 20.8683 15.0021 20.8683C18.2413 20.8683 20.868 18.2416 20.868 15.0024C20.868 11.7615 18.2411 9.13652 15.0021 9.13652Z" fill="#2B313D" fill-opacity="0.54"/>
</svg>
