<svg width="30" height="30" viewBox="0 0 30 30" fill="none" xmlns="http://www.w3.org/2000/svg">
<path fill-rule="evenodd" clip-rule="evenodd" d="M19.9938 3.75H10.0062C6.26408 3.75 3.75 6.38013 3.75 10.2939V19.7061C3.75 23.6199 6.26408 26.25 10.0062 26.25H19.9926C23.7347 26.25 26.25 23.6199 26.25 19.7061V10.2939C26.25 6.38013 23.7359 3.75 19.9938 3.75ZM13.6506 11.53C13.9267 11.53 14.1506 11.7539 14.1506 12.03V15.8191C14.1506 17.7928 12.8909 18.7975 11.0753 18.7975C9.2597 18.7975 8 17.7928 8 15.8191V12.03C8 11.7539 8.22386 11.53 8.5 11.53H8.928C9.20414 11.53 9.428 11.7539 9.428 12.03V15.7477C9.428 16.9207 10.091 17.4358 11.0753 17.4358C12.0596 17.4358 12.7226 16.9207 12.7226 15.7477V12.03C12.7226 11.7539 12.9465 11.53 13.2226 11.53H13.6506ZM21.3601 11.53C21.7093 11.53 21.951 11.8789 21.8281 12.2059L19.5212 18.3459C19.448 18.5409 19.2615 18.67 19.0532 18.67H18.0168C17.8085 18.67 17.622 18.5409 17.5488 18.3459L15.2419 12.2059C15.1191 11.8789 15.3607 11.53 15.7099 11.53H16.1509C16.3619 11.53 16.5502 11.6625 16.6215 11.8611L18.0783 15.9191C18.2367 16.3601 18.8602 16.3606 19.0193 15.9198L20.4839 11.8603C20.5554 11.6621 20.7435 11.53 20.9542 11.53H21.3601Z" fill="#2B313D"/>
</svg>
