<svg width="82" height="82" viewBox="0 0 82 82" fill="none" xmlns="http://www.w3.org/2000/svg">
<rect width="82" height="82" rx="16" fill="white"/>
<path fill-rule="evenodd" clip-rule="evenodd" d="M44.7895 36.8333C44.7895 37.7394 45.5272 38.4754 46.4316 38.4754C47.3377 38.4754 48.0754 37.7394 48.0754 36.8333C48.0754 35.9272 47.336 35.1912 46.4299 35.1912C45.9886 35.1912 45.576 35.3629 45.2661 35.6762C44.9562 35.9878 44.7861 36.4038 44.7895 36.8333ZM45.9836 48.0131C46.2531 48.0131 46.5242 47.9272 46.7516 47.752C47.3057 47.3259 47.4084 46.5326 46.984 45.9802C45.4901 44.0383 43.3091 42.9251 41 42.9251C38.6893 42.9251 36.5082 44.0383 35.0177 45.9802C34.5933 46.5343 34.696 47.3259 35.2484 47.752C35.8042 48.1781 36.5975 48.072 37.0202 47.5196C38.0307 46.2059 39.4808 45.4514 41 45.4514C42.5192 45.4514 43.9693 46.2059 44.9815 47.5196C45.2307 47.8429 45.6046 48.0131 45.9836 48.0131ZM34.3187 35.6762C34.0088 35.9878 33.8387 36.4038 33.8421 36.8333C33.8421 37.7394 34.5798 38.4754 35.4842 38.4754C36.3903 38.4754 37.128 37.7394 37.128 36.8333C37.128 35.9272 36.3886 35.1912 35.4825 35.1912C35.0413 35.1912 34.6286 35.3629 34.3187 35.6762ZM33.8977 25H48.1023C53.4244 25 57 28.7406 57 34.3069V35H82V47H57V47.6931C57 53.2594 53.4227 57 48.1006 57H33.8977C28.5756 57 25 53.2594 25 47.6931V34.3069C25 28.7406 28.5756 25 33.8977 25Z" fill="#8BCDAD"/>
</svg>
