<svg width="32" height="32" viewBox="0 0 32 32" fill="none" xmlns="http://www.w3.org/2000/svg">
<path fill-rule="evenodd" clip-rule="evenodd" d="M23.8135 15.9883C23.2152 15.9883 22.7303 15.5069 22.7303 14.9128C22.7303 14.3187 23.2152 13.8373 23.8135 13.8373C24.4118 13.8373 24.8966 14.3187 24.8966 14.9128C24.8966 15.5069 24.4118 15.9883 23.8135 15.9883ZM21.7444 18.0427C21.1461 18.0427 20.6613 17.5613 20.6613 16.9672C20.6613 16.3731 21.1461 15.8917 21.7444 15.8917C22.3427 15.8917 22.8276 16.3731 22.8276 16.9672C22.8276 17.5613 22.3427 18.0427 21.7444 18.0427ZM19.6754 15.9883C19.0771 15.9883 18.5922 15.5069 18.5922 14.9128C18.5922 14.3187 19.0771 13.8373 19.6754 13.8373C20.2737 13.8373 20.7585 14.3187 20.7585 14.9128C20.7585 15.5069 20.2737 15.9883 19.6754 15.9883ZM21.7444 11.7829C22.3427 11.7829 22.8276 12.2643 22.8276 12.8584C22.8276 13.4524 22.3427 13.9338 21.7444 13.9338C21.1461 13.9338 20.6613 13.4524 20.6613 12.8584C20.6613 12.2643 21.1461 11.7829 21.7444 11.7829ZM12.0211 16.0834H11.0632V17.0345C11.0632 17.6403 10.568 18.132 9.95789 18.132C9.34779 18.132 8.85263 17.6403 8.85263 17.0345V16.0834H7.74737C7.13726 16.0834 6.64211 15.5917 6.64211 14.9859C6.64211 14.3801 7.13726 13.8885 7.74737 13.8885H8.85263V12.7911C8.85263 12.1853 9.34779 11.6936 9.95789 11.6936C10.568 11.6936 11.0632 12.1853 11.0632 12.7911V13.8885H12.0211C12.6312 13.8885 13.1263 14.3801 13.1263 14.9859C13.1263 15.5917 12.6312 16.0834 12.0211 16.0834ZM29.9705 19.8572C29.9543 19.7577 29.9366 19.5587 29.9086 19.2806C29.6596 16.7463 28.9036 9.03337 25.0425 6.97893C25.0366 6.97601 25.0307 6.97308 25.0234 6.97015C24.1362 6.52825 21.4276 5.1835 18.2606 7.00381C16.1562 8.30905 15.5785 8.18906 13.5787 6.99649C10.4398 5.12643 8.01558 6.36436 6.97958 6.89406L6.80863 6.97893C2.13116 9.46796 2 19.9567 2 20.062C2 22.0565 2.29916 24.484 4.68211 25.5742C5.49263 25.8829 6.21621 26 6.84547 26C8.29411 26 9.25053 25.3781 9.64842 25.0474C10.1598 24.6845 10.4575 24.2997 10.7448 23.9251C11.1192 23.4407 11.4714 22.9827 12.3924 22.4501C13.9309 21.559 18.2032 21.6892 19.5987 22.4457C20.3179 22.8744 20.6613 23.2871 21.0562 23.7641C21.3819 24.1563 21.7503 24.6011 22.3501 25.0474C23.6956 26.0015 25.4493 26.1946 27.3164 25.5742C29.7215 24.6553 30 21.9892 30 20.062C30 19.9918 29.9897 19.923 29.9705 19.8572Z" fill="#2B313D"/>
</svg>
