<svg width="82" height="82" viewBox="0 0 82 82" fill="none" xmlns="http://www.w3.org/2000/svg">
<rect width="82" height="82" rx="16" fill="#2B313D" fill-opacity="0.12"/>
<path fill-rule="evenodd" clip-rule="evenodd" d="M0 47L-5.24537e-07 35L15.4 35C19.9794 35 23.0531 34.9953 25.4202 34.8019C27.7172 34.6143 28.8154 34.2792 29.5399 33.9101C31.4215 32.9513 32.9513 31.4215 33.9101 29.5399C34.2792 28.8154 34.6143 27.7172 34.8019 25.4202C34.9953 23.0531 35 19.9794 35 15.4L35 -9.15929e-06L47 -9.68383e-06L47 15.6434C47.0001 19.9167 47.0002 23.4835 46.7621 26.3974C46.5138 29.4364 45.9769 32.2897 44.6021 34.9878C42.4929 39.1273 39.1274 42.4929 34.9878 44.6021C32.2897 45.9769 29.4364 46.5138 26.3974 46.7621C23.4835 47.0002 19.9167 47.0001 15.6435 47L0 47Z" fill="#2B313D" fill-opacity="0.3"/>
</svg>
