<svg width="30" height="30" viewBox="0 0 30 30" fill="none" xmlns="http://www.w3.org/2000/svg">
<path fill-rule="evenodd" clip-rule="evenodd" d="M18.9062 17.3763C18.235 17.3763 17.6875 16.83 17.6875 16.1575C17.685 15.8387 17.8112 15.53 18.0413 15.2987C18.2712 15.0662 18.5775 14.9387 18.905 14.9387C19.5775 14.9387 20.1263 15.485 20.1263 16.1575C20.1263 16.83 19.5788 17.3763 18.9062 17.3763ZM17.105 22.0887H12.645C12.1275 22.0887 11.7075 21.6688 11.7075 21.1512C11.7075 20.6337 12.1275 20.2137 12.645 20.2137H17.105C17.6225 20.2137 18.0425 20.6337 18.0425 21.1512C18.0425 21.6688 17.6225 22.0887 17.105 22.0887ZM10.7813 17.3763C10.11 17.3763 9.5625 16.83 9.5625 16.1575C9.56 15.8387 9.68625 15.53 9.91625 15.2987C10.1462 15.0662 10.4525 14.9387 10.78 14.9387C11.4525 14.9387 12.0013 15.485 12.0013 16.1575C12.0013 16.83 11.4538 17.3763 10.7813 17.3763ZM20.1462 3H9.60375C5.65375 3 3 5.77625 3 9.9075V19.8425C3 23.9737 5.65375 26.75 9.60375 26.75H20.145C24.095 26.75 26.75 23.9737 26.75 19.8425V9.9075C26.75 5.77625 24.0962 3 20.1462 3Z" fill="#2B313D"/>
</svg>
