<svg width="30" height="30" viewBox="0 0 30 30" fill="none" xmlns="http://www.w3.org/2000/svg">
<path fill-rule="evenodd" clip-rule="evenodd" d="M20.27 26.875H9.7275C5.77875 26.875 3.125 24.0987 3.125 19.9675V10.0325C3.125 5.90125 5.77875 3.125 9.7275 3.125H20.2712C24.2212 3.125 26.875 5.90125 26.875 10.0325V19.9675C26.875 24.0987 24.22 26.875 20.27 26.875ZM12.7504 20.1408C12.9254 20.3132 13.1616 20.4107 13.4079 20.4107H13.4179C13.6679 20.4083 13.9054 20.3057 14.0804 20.127L14.9979 19.182L15.9166 20.127C16.0904 20.3057 16.3291 20.4083 16.5791 20.4107C16.8179 20.4058 17.0691 20.3158 17.2466 20.1408L18.2241 19.1795L19.1041 20.1157C19.4616 20.4932 20.0541 20.5107 20.4291 20.1558C20.8066 19.802 20.8254 19.2083 20.4704 18.8307L18.9329 17.1958C18.7591 17.0108 18.5191 16.9045 18.2679 16.8995C18.0216 16.9132 17.7716 16.992 17.5916 17.1695L16.6041 18.1432L15.6716 17.1833C15.3166 16.8208 14.6804 16.8208 14.3254 17.1833L13.3941 18.1432L12.4066 17.1695C12.2266 16.9933 12.0092 16.9132 11.7304 16.8995C11.4779 16.9045 11.2392 17.012 11.0654 17.1958L9.5279 18.8307C9.17415 19.2083 9.1929 19.802 9.5704 20.1558C9.9454 20.5107 10.5404 20.492 10.8954 20.1157L11.7741 19.1795L12.7504 20.1408ZM9.59449 14.3225C9.28199 14.3225 8.97699 14.1662 8.79824 13.8812C8.52449 13.4425 8.65699 12.8637 9.09699 12.59L10.117 11.9525L9.09824 11.3188C8.65824 11.045 8.52449 10.4675 8.79699 10.0275C9.06949 9.5875 9.64574 9.4525 10.0895 9.72625L12.3832 11.1538C12.6583 11.325 12.8258 11.625 12.8258 11.9487C12.8258 12.2725 12.6595 12.5738 12.3845 12.745L10.0895 14.18C9.93574 14.2762 9.76449 14.3225 9.59449 14.3225ZM19.91 14.18C20.0638 14.2762 20.235 14.3225 20.405 14.3225C20.7175 14.3225 21.0225 14.1662 21.2013 13.8812C21.475 13.4425 21.3425 12.8637 20.9025 12.59L19.8825 11.9525L20.9013 11.3188C21.3413 11.045 21.475 10.4675 21.2025 10.0275C20.93 9.5875 20.355 9.4525 19.91 9.72625L17.6163 11.1538C17.3413 11.325 17.1737 11.625 17.1737 11.9487C17.1737 12.2725 17.34 12.5738 17.615 12.745L19.91 14.18Z" fill="#2B313D"/>
</svg>
