<svg width="30" height="30" viewBox="0 0 30 30" fill="none" xmlns="http://www.w3.org/2000/svg">
<path fill-rule="evenodd" clip-rule="evenodd" d="M8.63118 20.5968L10.0844 9.2472C10.3064 7.5204 11.1116 6.042 12.3524 5.0832C13.1169 4.49401 14.0269 4.1282 15.0073 3.99692C15.2762 3.96089 15.3262 3.63626 15.0556 3.61441C14.7439 3.58923 14.4211 3.5966 14.09 3.6396L7.58118 4.47C6.36198 4.6224 5.36118 5.1648 4.68678 6.0372C3.98478 6.9456 3.69198 8.1708 3.86358 9.4836L5.41158 21.618C5.58318 22.9404 6.17838 24.054 7.08678 24.7524C7.79358 25.296 8.65398 25.5744 9.60438 25.5744L9.63561 25.5743C9.83316 25.572 9.92466 25.3317 9.8032 25.1759C8.86238 23.969 8.40191 22.3734 8.63118 20.5968ZM20.2736 13.9684C19.9856 13.8124 19.6496 13.8004 19.3616 13.9444C19.0016 14.1124 18.5696 14.0284 18.3056 13.7284C18.0896 13.4884 17.7776 13.3684 17.4536 13.4044C16.8056 13.4884 16.5296 14.1604 16.5896 14.7604C16.7096 15.6844 17.5736 16.7044 18.1616 17.2924C18.9296 16.9684 20.1296 16.3444 20.5616 15.5404C20.7416 15.2044 20.8016 14.8204 20.7056 14.4964C20.6336 14.2684 20.4896 14.0884 20.2736 13.9684ZM18.2336 19.1764C18.5336 19.0924 21.1616 18.2044 22.1455 16.4044C22.5536 15.6484 22.6616 14.7725 22.4335 13.9925C22.2295 13.2965 21.7616 12.7324 21.1376 12.3964C20.5375 12.0604 19.8416 11.9644 19.1696 12.1084C18.6176 11.7244 17.9216 11.5444 17.2376 11.6284C15.7976 11.8084 14.7776 13.0684 14.7776 14.5805C14.7776 14.7125 14.7896 14.8444 14.8016 14.9764C15.0437 16.9598 16.9923 18.6772 17.3465 18.9894C17.3609 19.0021 17.3726 19.0125 17.3816 19.0204C17.5496 19.1524 17.7536 19.2244 17.9576 19.2244C18.0536 19.2244 18.1496 19.2124 18.2336 19.1764ZM22.5776 6.54041C23.7176 6.68441 24.6656 7.20041 25.3016 8.01641C25.9616 8.88041 26.2496 10.0444 26.0816 11.2924L24.6296 22.6444C24.4736 23.8684 23.9576 24.8644 23.1536 25.5364C22.4576 26.1124 21.6056 26.4004 20.6576 26.4004C20.4536 26.4004 20.2495 26.3884 20.0336 26.3645L13.9256 25.5844C11.5016 25.2605 10.0856 23.3524 10.4216 20.8324L11.8736 9.48041C12.0296 8.23241 12.5936 7.17641 13.4576 6.50441C14.2736 5.86841 15.3176 5.61641 16.4696 5.76041L22.5776 6.54041Z" fill="#2B313D"/>
</svg>
