<svg width="30" height="30" viewBox="0 0 30 30" fill="none" xmlns="http://www.w3.org/2000/svg">
<path fill-rule="evenodd" clip-rule="evenodd" d="M19.9938 3.75H10.0062C6.26408 3.75 3.75 6.38013 3.75 10.2939V19.7061C3.75 23.6199 6.26408 26.25 10.0062 26.25H19.9926C23.7347 26.25 26.25 23.6199 26.25 19.7061V10.2939C26.25 6.38013 23.7359 3.75 19.9938 3.75ZM15.5246 13.27C15.5246 14.6423 14.6166 15.5299 12.923 15.5299H11.9232C11.6471 15.5299 11.4232 15.7537 11.4232 16.0299V17.6417C11.4232 17.9179 11.1994 18.1417 10.9232 18.1417H10.5C10.2239 18.1417 10 17.9179 10 17.6417V11.5C10 11.2239 10.2239 11 10.5 11H12.9128C14.6166 11 15.5246 11.8876 15.5246 13.27ZM14.0657 13.27C14.0657 12.6324 13.6627 12.311 12.8873 12.311H11.9232C11.6471 12.311 11.4232 12.5349 11.4232 12.811V13.7291C11.4232 14.0052 11.6471 14.2291 11.9232 14.2291H12.8873C13.6627 14.2291 14.0657 13.9128 14.0657 13.27ZM18.1873 13.4296C18.479 13.181 18.8562 13.066 19.3062 13.066C19.4127 13.066 19.5106 13.0717 19.6011 13.0822C19.8379 13.1098 19.9744 13.3428 19.9389 13.5786L19.8986 13.8468C19.8495 14.1729 19.4951 14.3717 19.1665 14.3438C19.1082 14.3388 19.0507 14.3362 18.9951 14.3362C18.3778 14.3362 17.9544 14.7137 17.9544 15.4483V17.6417C17.9544 17.9179 17.7306 18.1417 17.4544 18.1417H17.123C16.8468 18.1417 16.623 17.9179 16.623 17.6417V13.6986C16.623 13.4225 16.8468 13.1986 17.123 13.1986H17.7875C17.8571 13.1986 17.9136 13.2551 17.9136 13.3247C17.9136 13.4493 18.0924 13.5104 18.1873 13.4296Z" fill="#2B313D"/>
</svg>
