<svg width="30" height="30" viewBox="0 0 30 30" fill="none" xmlns="http://www.w3.org/2000/svg">
<path fill-rule="evenodd" clip-rule="evenodd" d="M13.7016 25.3126C13.9121 25.404 14.1316 25.2376 14.1316 25.0081V7.15938C14.1316 7.03154 14.0557 6.91745 13.9453 6.85302C12.5141 6.02048 10.2539 4.9691 7.61151 4.6831C6.68634 4.57657 5.75886 4.87647 5.06875 5.49479C4.38906 6.10269 4 6.9746 4 7.88587V19.8586C4 21.5491 5.34201 22.9629 7.05687 23.0764C9.61816 23.2605 11.9016 24.3015 13.3628 25.1409C13.4731 25.2052 13.5862 25.2624 13.7016 25.3126ZM10.5441 13.3723C10.6483 13.4129 10.756 13.4325 10.8625 13.4325C11.2088 13.4325 11.5364 13.2241 11.6708 12.8814C11.8468 12.4368 11.6268 11.9319 11.181 11.7559L8.65094 10.759C8.2063 10.5853 7.70146 10.803 7.52546 11.2499C7.34945 11.6957 7.5683 12.2006 8.01525 12.3766L10.5441 13.3723ZM10.5418 18.5806C10.646 18.6234 10.7549 18.6431 10.8625 18.6431C11.2076 18.6431 11.5341 18.4359 11.6696 18.0954C11.8468 17.6508 11.6291 17.1448 11.1833 16.9688L8.65441 15.9614C8.21094 15.7796 7.70377 15.9996 7.52661 16.4466C7.3483 16.8912 7.56598 17.3972 8.01178 17.5732L10.5418 18.5806ZM16.2982 25.3127C16.0877 25.4042 15.8683 25.2378 15.8683 25.0083V7.16021C15.8683 7.03238 15.9443 6.91832 16.0549 6.85419C17.4849 6.0205 19.7463 4.96912 22.3898 4.68311C23.3172 4.58237 24.2401 4.87764 24.9302 5.49481C25.6099 6.10386 26.0001 6.97461 26.0001 7.88588V19.8586C26.0001 21.5503 24.6558 22.9641 22.9409 23.0764C20.382 23.2605 18.0986 24.3015 16.6338 25.1433C16.5246 25.2066 16.4125 25.2631 16.2982 25.3127Z" fill="#2B313D"/>
</svg>
