<svg width="30" height="30" viewBox="0 0 30 30" fill="none" xmlns="http://www.w3.org/2000/svg">
<path fill-rule="evenodd" clip-rule="evenodd" d="M18.8191 12.3947C18.1832 12.3947 17.6645 11.8772 17.6645 11.2401C17.6621 10.9382 17.7817 10.6457 17.9996 10.4266C18.2175 10.2063 18.5076 10.0855 18.8179 10.0855C19.455 10.0855 19.9749 10.603 19.9749 11.2401C19.9749 11.8772 19.4562 12.3947 18.8191 12.3947ZM15 21.2076C12.3142 21.2076 10.1282 18.8771 10.1282 16.0125C10.1282 15.6857 10.3934 15.4204 10.7203 15.4204H19.2821C19.6089 15.4204 19.8742 15.6857 19.8742 16.0125C19.8742 18.8771 17.6882 21.2076 15 21.2076ZM9.96711 11.2401C9.96474 10.9382 10.0843 10.6457 10.3022 10.4266C10.5201 10.2063 10.8103 10.0855 11.1205 10.0855C11.7576 10.0855 12.2775 10.603 12.2775 11.2401C12.2775 11.8772 11.7588 12.3947 11.1217 12.3947C10.4858 12.3947 9.96711 11.8772 9.96711 11.2401ZM19.9938 3.75H10.0062C6.26408 3.75 3.75 6.38013 3.75 10.2939V19.7061C3.75 23.6199 6.26408 26.25 10.0062 26.25H19.9926C23.7347 26.25 26.25 23.6199 26.25 19.7061V10.2939C26.25 6.38013 23.7359 3.75 19.9938 3.75Z" fill="#2B313D"/>
</svg>
