<svg width="30" height="30" viewBox="0 0 30 30" fill="none" xmlns="http://www.w3.org/2000/svg">
<path fill-rule="evenodd" clip-rule="evenodd" d="M17.1112 5.84999H17.3296L16.3804 7.17359C16.1836 7.44719 16.156 7.80959 16.3108 8.10959C16.4644 8.40959 16.774 8.59799 17.1112 8.59799H19.0828C19.5796 8.59799 19.9828 8.19479 19.9828 7.69799C19.9828 7.20119 19.5796 6.79799 19.0828 6.79799H18.8644L19.8136 5.47559C20.0104 5.20079 20.0368 4.83839 19.8832 4.53839C19.7296 4.23839 19.42 4.04999 19.0828 4.04999H17.1112C16.6144 4.04999 16.2112 4.45319 16.2112 4.94999C16.2112 5.44679 16.6144 5.84999 17.1112 5.84999ZM23.2819 14.0476H6.99795C6.66195 14.0476 6.39795 13.7836 6.39795 13.4476V9.75157V9.75156C6.39795 8.97157 6.39795 8.55157 6.52995 8.15557C6.78195 7.47157 7.30995 6.94357 7.98195 6.70357C8.36595 6.55957 8.77395 6.55957 9.58994 6.55957H9.58995H15.0104C15.3032 6.55957 15.4843 6.90275 15.399 7.18285C15.2672 7.61583 15.2885 8.08047 15.5059 8.51557C15.8179 9.11557 16.4419 9.49957 17.1139 9.49957H19.0819C19.7687 9.49957 20.1459 9.35342 20.417 8.82133C20.4541 8.74851 20.5453 8.71926 20.6203 8.75168C20.7006 8.78634 20.7357 8.88361 20.6877 8.95662L20.1259 9.81157C19.7299 10.3636 19.6699 11.0836 19.9819 11.6836C20.2939 12.2836 20.9059 12.6676 21.5779 12.6676H23.5219C23.7207 12.6676 23.8819 12.8287 23.8819 13.0276V13.4476C23.8819 13.7836 23.6059 14.0476 23.2819 14.0476ZM23.3211 15.4878C24.8607 15.8682 26.0415 17.0538 26.4159 18.5814C26.5359 19.0722 26.5359 19.6062 26.5359 20.6682C26.5359 21.2418 26.5359 21.5562 26.4615 21.8562C26.2407 22.7694 25.5315 23.4762 24.6111 23.7006C24.4791 23.7354 24.3423 23.7522 24.1779 23.763V25.0482C24.1779 25.545 23.7747 25.9482 23.2779 25.9482C22.7811 25.9482 22.3779 25.545 22.3779 25.0482V24.0162C22.3779 23.8836 22.2703 23.7762 22.1379 23.7762H8.13264C8.00009 23.7762 7.89264 23.8836 7.89264 24.0162V25.0482C7.89264 25.545 7.49064 25.9482 6.99264 25.9482C6.49584 25.9482 6.09264 25.545 6.09264 25.0482V23.763C5.92584 23.7522 5.78424 23.733 5.64504 23.697C4.74024 23.4774 4.02984 22.7706 3.80664 21.855C3.73584 21.555 3.73584 21.2394 3.73584 20.6682C3.73584 19.6062 3.73584 19.0722 3.85344 18.5826C4.22784 17.0538 5.40864 15.8682 6.93984 15.4902C7.43544 15.3762 7.96823 15.3762 9.03021 15.3762H9.03024H21.2403H21.2403C22.3011 15.3762 22.8351 15.3762 23.3211 15.4878ZM22.7349 7.72151H21.5829C21.0861 7.72151 20.6829 7.31831 20.6829 6.82151C20.6829 6.32471 21.0861 5.92151 21.5829 5.92151H24.4905C24.8277 5.92151 25.1373 6.10991 25.2909 6.41111C25.4457 6.71111 25.4181 7.07231 25.2213 7.34711L23.3385 9.96551H24.4905C24.9873 9.96551 25.3905 10.3687 25.3905 10.8655C25.3905 11.3623 24.9873 11.7655 24.4905 11.7655H21.5829C21.2457 11.7655 20.9361 11.5771 20.7825 11.2759C20.6277 10.9759 20.6553 10.6147 20.8521 10.3411L22.7349 7.72151Z" fill="#444A57"/>
</svg>
