<svg width="30" height="30" viewBox="0 0 30 30" fill="none" xmlns="http://www.w3.org/2000/svg">
<path fill-rule="evenodd" clip-rule="evenodd" d="M5.77325 9.55499C5.81181 9.52413 9.70805 6.48295 14.3889 9.61228C16.3502 10.918 18.2807 11.3852 19.9996 11.3852C22.4987 11.3852 24.5526 10.3968 25.6049 9.55609C26.0809 9.17594 26.158 8.48286 25.7779 8.00685C25.3999 7.53304 24.7036 7.45481 24.2297 7.83385C24.1901 7.86581 20.2938 10.8982 15.6131 7.77876C10.8044 4.56568 6.17323 6.41133 4.3937 7.83495C3.91879 8.2162 3.84276 8.91039 4.22401 9.38419C4.60415 9.86021 5.29724 9.93734 5.77325 9.55499ZM24.2296 20.4504L24.2295 20.4505C24.1849 20.4852 20.2939 23.5116 15.6118 20.3942C10.801 17.1911 6.17203 19.0301 4.3958 20.4504C3.91979 20.8306 3.84266 21.5237 4.22281 21.9997C4.60185 22.4735 5.29604 22.5517 5.77095 22.1716C5.80951 22.1407 9.70245 19.1061 14.3887 22.2278C16.3501 23.5335 18.2805 24.0018 19.9995 24.0018C22.4985 24.0018 24.5524 23.0134 25.6047 22.1716C26.0807 21.7914 26.1579 21.0983 25.7777 20.6234C25.3998 20.1485 24.7034 20.0714 24.2296 20.4504ZM24.2276 14.1383C24.2286 14.1376 24.2292 14.137 24.2296 14.1368C24.7034 13.7577 25.3998 13.8349 25.7777 14.3098C26.1579 14.7847 26.0807 15.4778 25.6047 15.8579C24.5524 16.6998 22.4985 17.6881 19.9995 17.6881C18.2805 17.6881 16.3501 17.2198 14.3887 15.9141C9.70245 12.7935 5.80951 15.8271 5.77095 15.8579C5.29604 16.2381 4.60185 16.1598 4.22281 15.686C3.84266 15.21 3.91979 14.5169 4.3958 14.1368C6.17203 12.7164 10.801 10.8774 15.6118 14.0806C20.2551 17.1721 24.1203 14.2203 24.2276 14.1383Z" fill="#2B313D"/>
<path d="M14.3889 9.61228L14.2499 9.82012L14.2503 9.82039L14.3889 9.61228ZM5.77325 9.55499L5.61707 9.35977L5.61669 9.36008L5.77325 9.55499ZM25.6049 9.55609L25.4489 9.36074L25.4488 9.36077L25.6049 9.55609ZM25.7779 8.00685L25.5824 8.16274L25.5825 8.16286L25.7779 8.00685ZM24.2297 7.83385L24.0736 7.63863L24.0729 7.63917L24.2297 7.83385ZM15.6131 7.77876L15.4742 7.98663L15.4744 7.98679L15.6131 7.77876ZM4.3937 7.83495L4.23752 7.63974L4.23719 7.64L4.3937 7.83495ZM4.22401 9.38419L4.41936 9.22819L4.41878 9.22747L4.22401 9.38419ZM24.2295 20.4505L24.383 20.6478L24.3854 20.6459L24.2295 20.4505ZM24.2296 20.4504L24.3855 20.6459L24.3858 20.6456L24.2296 20.4504ZM15.6118 20.3942L15.4732 20.6023L15.4732 20.6023L15.6118 20.3942ZM4.3958 20.4504L4.55181 20.6458L4.55193 20.6457L4.3958 20.4504ZM4.22281 21.9997L4.02746 22.1557L4.02759 22.1558L4.22281 21.9997ZM5.77095 22.1716L5.61478 21.9763L5.61472 21.9764L5.77095 22.1716ZM14.3887 22.2278L14.2501 22.4358L14.2502 22.4359L14.3887 22.2278ZM25.6047 22.1716L25.4487 21.9762L25.4486 21.9763L25.6047 22.1716ZM25.7777 20.6234L25.5821 20.7791L25.5826 20.7796L25.7777 20.6234ZM24.2296 14.1368L24.3797 14.3369L24.3858 14.332L24.2296 14.1368ZM24.2276 14.1383L24.076 13.9395L24.0759 13.9396L24.2276 14.1383ZM25.7777 14.3098L25.5821 14.4655L25.5826 14.466L25.7777 14.3098ZM25.6047 15.8579L25.4487 15.6626L25.4486 15.6627L25.6047 15.8579ZM14.3887 15.9141L14.2501 16.1222L14.2502 16.1222L14.3887 15.9141ZM5.77095 15.8579L5.61477 15.6627L5.61472 15.6627L5.77095 15.8579ZM4.22281 15.686L4.02746 15.842L4.02759 15.8422L4.22281 15.686ZM4.3958 14.1368L4.55181 14.3321L4.55193 14.332L4.3958 14.1368ZM15.6118 14.0806L15.4732 14.2887L15.4732 14.2887L15.6118 14.0806ZM14.5278 9.40445C9.69962 6.17659 5.67133 9.31636 5.61707 9.35977L5.92942 9.7502C5.92873 9.75075 6.16716 9.5634 6.59659 9.33065C7.02562 9.09812 7.64196 8.8221 8.39821 8.64175C9.90467 8.28248 11.9755 8.29959 14.2499 9.82012L14.5278 9.40445ZM19.9996 11.1352C18.3283 11.1352 16.4463 10.6816 14.5274 9.40418L14.2503 9.82039C16.2541 11.1544 18.2331 11.6352 19.9996 11.6352V11.1352ZM25.4488 9.36077C24.4365 10.1696 22.4366 11.1352 19.9996 11.1352V11.6352C22.5607 11.6352 24.6687 10.6241 25.7609 9.7514L25.4488 9.36077ZM25.5825 8.16286C25.8766 8.53113 25.8169 9.06687 25.4489 9.36074L25.7609 9.75144C26.3449 9.28501 26.4394 8.43459 25.9732 7.85084L25.5825 8.16286ZM24.3859 8.02907C24.7518 7.73639 25.2907 7.79695 25.5824 8.16274L25.9733 7.85095C25.5092 7.26913 24.6553 7.17322 24.0736 7.63864L24.3859 8.02907ZM15.4744 7.98679C17.8808 9.59047 20.0982 9.61708 21.7197 9.23128C23.332 8.84764 24.3493 8.05858 24.3866 8.02854L24.0729 7.63917C24.0742 7.63813 23.8359 7.82506 23.406 8.05748C22.9768 8.28951 22.3603 8.56489 21.604 8.74486C20.0972 9.10338 18.0261 9.08647 15.7517 7.57072L15.4744 7.98679ZM4.54987 8.03017C6.27028 6.65384 10.781 4.85073 15.4742 7.98663L15.752 7.57089C10.8278 4.28064 6.07618 6.16881 4.23752 7.63974L4.54987 8.03017ZM4.41878 9.22747C4.12436 8.86158 4.18279 8.32486 4.5502 8.02991L4.23719 7.64C3.65478 8.10755 3.56115 8.9592 4.02923 9.54092L4.41878 9.22747ZM5.61669 9.36008C5.24854 9.65578 4.71318 9.5961 4.41936 9.22819L4.02866 9.5402C4.49513 10.1243 5.34593 10.2189 5.92981 9.74989L5.61669 9.36008ZM24.3854 20.6459L24.3855 20.6459L24.0737 20.255L24.0736 20.255L24.3854 20.6459ZM15.4732 20.6023C20.3025 23.8177 24.3254 20.6927 24.383 20.6478L24.076 20.2531C24.0444 20.2778 20.2854 23.2056 15.7503 20.1861L15.4732 20.6023ZM4.55193 20.6457C6.26876 19.2728 10.7776 17.4758 15.4732 20.6023L15.7503 20.1861C10.8244 16.9063 6.07529 18.7874 4.23967 20.2552L4.55193 20.6457ZM4.41816 21.8437C4.12405 21.4754 4.18384 20.9396 4.55181 20.6458L4.23979 20.2551C3.65574 20.7215 3.56127 21.5719 4.02746 22.1557L4.41816 21.8437ZM5.61472 21.9764C5.24783 22.2701 4.71097 22.2097 4.41802 21.8435L4.02759 22.1558C4.49274 22.7373 5.34424 22.8333 5.92717 22.3667L5.61472 21.9764ZM14.5273 22.0197C9.69399 18.8001 5.66943 21.9326 5.61478 21.9763L5.92712 22.3668C5.9263 22.3674 6.16448 22.1805 6.59372 21.9482C7.02252 21.7162 7.63862 21.4407 8.39484 21.2607C9.90127 20.9021 11.9729 20.9189 14.2501 22.4358L14.5273 22.0197ZM19.9995 23.7518C18.3282 23.7518 16.4462 23.2972 14.5273 22.0196L14.2502 22.4359C16.2539 23.7698 18.2329 24.2518 19.9995 24.2518V23.7518ZM25.4486 21.9763C24.4363 22.7861 22.4365 23.7518 19.9995 23.7518V24.2518C22.5606 24.2518 24.6686 23.2406 25.7609 22.3668L25.4486 21.9763ZM25.5826 20.7796C25.8763 21.1466 25.8168 21.6822 25.4487 21.9762L25.7607 22.3669C26.3446 21.9006 26.4395 21.05 25.9729 20.4672L25.5826 20.7796ZM24.3858 20.6456C24.7519 20.3527 25.2906 20.4128 25.5821 20.7791L25.9733 20.4677C25.509 19.8843 24.6549 19.79 24.0734 20.2552L24.3858 20.6456ZM24.0796 13.9368C24.0786 13.9375 24.0777 13.9382 24.0774 13.9385C24.0769 13.9388 24.0764 13.9392 24.076 13.9395L24.3792 14.3371L24.3796 14.3368L24.0796 13.9368ZM25.9733 14.1541C25.509 13.5706 24.6549 13.4764 24.0734 13.9416L24.3858 14.332C24.7519 14.0391 25.2906 14.0991 25.5821 14.4655L25.9733 14.1541ZM25.7607 16.0533C26.3446 15.5869 26.4395 14.7364 25.9729 14.1535L25.5826 14.466C25.8763 14.833 25.8168 15.3686 25.4487 15.6626L25.7607 16.0533ZM19.9995 17.9381C22.5606 17.9381 24.6686 16.927 25.7609 16.0531L25.4486 15.6627C24.4363 16.4725 22.4365 17.4381 19.9995 17.4381V17.9381ZM14.2502 16.1222C16.2539 17.4562 18.2329 17.9381 19.9995 17.9381V17.4381C18.3282 17.4381 16.4462 16.9835 14.5273 15.706L14.2502 16.1222ZM5.92712 16.0531C5.92627 16.0538 6.16443 15.8669 6.59368 15.6347C7.02249 15.4028 7.6386 15.1274 8.39482 14.9474C9.90127 14.5889 11.9729 14.6058 14.2501 16.1222L14.5273 15.706C9.694 12.4876 5.66949 15.6189 5.61477 15.6627L5.92712 16.0531ZM4.02759 15.8422C4.49274 16.4236 5.34424 16.5197 5.92717 16.0531L5.61472 15.6627C5.24783 15.9564 4.71097 15.896 4.41802 15.5299L4.02759 15.8422ZM4.23979 13.9414C3.65574 14.4079 3.56127 15.2583 4.02746 15.842L4.41816 15.53C4.12405 15.1617 4.18384 14.626 4.55181 14.3321L4.23979 13.9414ZM15.7504 13.8725C10.8244 10.5926 6.07529 12.4737 4.23967 13.9415L4.55193 14.332C6.26877 12.9592 10.7776 11.1621 15.4732 14.2887L15.7504 13.8725ZM24.0759 13.9396C23.9815 14.0117 20.2477 16.8668 15.7503 13.8725L15.4732 14.2887C20.2625 17.4774 24.2591 14.4288 24.3793 14.337L24.0759 13.9396Z" fill="#2B313D"/>
</svg>
