<svg width="82" height="82" viewBox="0 0 82 82" fill="none" xmlns="http://www.w3.org/2000/svg">
<rect width="82" height="82" rx="16" fill="white"/>
<path fill-rule="evenodd" clip-rule="evenodd" d="M35 0H47V15.4C47 19.9794 47.0047 23.0531 47.1981 25.4202C47.3857 27.7172 47.7208 28.8154 48.0899 29.5399C49.0487 31.4215 50.5785 32.9513 52.4601 33.9101C53.1846 34.2792 54.2828 34.6143 56.5798 34.8019C58.9469 34.9953 62.0206 35 66.6 35H82V47H66.3566C62.0833 47.0001 58.5165 47.0002 55.6026 46.7621C52.5636 46.5138 49.7103 45.9769 47.0122 44.6021C42.8726 42.4929 39.5071 39.1274 37.3979 34.9878C36.0231 32.2897 35.4862 29.4364 35.2379 26.3974C34.9998 23.4835 34.9999 19.9167 35 15.6435L35 0Z" fill="#8BCDAD"/>
</svg>
