<svg width="30" height="30" viewBox="0 0 30 30" fill="none" xmlns="http://www.w3.org/2000/svg">
<path d="M11.8192 18.4928C16.6016 18.4928 20.6384 19.2669 20.6384 22.2604C20.6384 25.2516 16.5758 26 11.8192 26L11.4943 25.9988C6.8554 25.9637 3 25.1578 3 22.2323C3 19.2412 7.06263 18.4928 11.8192 18.4928ZM19.2836 16.6906C21.1024 16.6555 23.0586 16.9049 23.7807 17.0806C25.3118 17.3792 26.3181 17.9871 26.7349 18.8737C27.0884 19.5998 27.0884 20.443 26.7349 21.1691C26.0974 22.5418 24.0402 22.9833 23.2406 23.0969C23.075 23.1203 22.9424 22.9798 22.96 22.8135C23.3686 19.0095 20.1197 17.2059 19.2789 16.7913C19.2437 16.7714 19.2355 16.7433 19.239 16.7246C19.2414 16.7128 19.2566 16.6941 19.2836 16.6906ZM11.8192 4C15.0587 4 17.6548 6.58946 17.6548 9.82073C17.6548 13.052 15.0587 15.6415 11.8192 15.6415C8.58084 15.6415 5.98357 13.052 5.98357 9.82073C5.98357 6.58946 8.58084 4 11.8192 4ZM19.6007 4.97219C22.7298 4.97219 25.1862 7.90715 24.349 11.1759C23.7842 13.3789 21.74 14.8417 19.4621 14.7819C19.2332 14.7772 19.0089 14.755 18.7905 14.7187C18.6332 14.6906 18.5533 14.5137 18.6437 14.3826C19.5126 13.1072 20.0081 11.5717 20.0081 9.92625C20.0081 8.20697 19.468 6.60598 18.5275 5.29075C18.4969 5.24976 18.4746 5.18769 18.5052 5.13967C18.5287 5.10219 18.5756 5.08111 18.6191 5.07174C18.9361 5.00733 19.2613 4.97219 19.6007 4.97219Z" fill="#2B313D"/>
</svg>
