<svg width="30" height="30" viewBox="0 0 30 30" fill="none" xmlns="http://www.w3.org/2000/svg">
<path d="M21.5611 17.1296C23.4611 17.1296 25 18.6425 25 20.5092C25 22.3748 23.4611 23.8878 21.5611 23.8878C19.6623 23.8878 18.1223 22.3748 18.1223 20.5092C18.1223 18.6425 19.6623 17.1296 21.5611 17.1296ZM13.0833 19.0679C13.9155 19.0679 14.5911 19.7316 14.5911 20.5493C14.5911 21.3658 13.9155 22.0306 13.0833 22.0306H6.50777C5.67555 22.0306 5 21.3658 5 20.5493C5 19.7316 5.67555 19.0679 6.50777 19.0679H13.0833ZM8.43887 6.10999C10.3389 6.10999 11.8777 7.62297 11.8777 9.48855C11.8777 11.3552 10.3389 12.8682 8.43887 12.8682C6.53999 12.8682 5 11.3552 5 9.48855C5 7.62297 6.53999 6.10999 8.43887 6.10999ZM23.4933 8.00831C24.3244 8.00831 25 8.67201 25 9.48855C25 10.3062 24.3244 10.9699 23.4933 10.9699H16.9178C16.0856 10.9699 15.4101 10.3062 15.4101 9.48855C15.4101 8.67201 16.0856 8.00831 16.9178 8.00831H23.4933Z" fill="#2B313D" fill-opacity="0.54"/>
</svg>
