<svg width="30" height="30" viewBox="0 0 30 30" fill="none" xmlns="http://www.w3.org/2000/svg">
<path fill-rule="evenodd" clip-rule="evenodd" d="M8.232 10.1413C10.2331 9.84176 12.1145 11.2173 12.4067 13.1448C12.4076 13.1504 12.4082 13.1558 12.4086 13.1615C12.4121 13.2077 12.4302 13.4465 12.4561 13.8248C12.4703 14.0326 12.226 14.164 12.048 14.0558C11.0625 13.4569 9.86783 13.2664 8.736 13.4533C7.60373 13.6403 6.52542 14.205 5.76571 15.085C5.62942 15.2429 5.3563 15.1914 5.3071 14.9887C5.22071 14.6328 5.161 14.385 5.136 14.2933C4.86 12.3013 6.24 10.4413 8.232 10.1413ZM7.956 8.35331C4.98052 8.81936 2.92131 11.5939 3.3544 14.5678C3.35801 14.5925 3.36742 14.6166 3.37051 14.6414C3.3708 14.6438 3.37104 14.6461 3.37123 14.6485C3.37276 14.6676 3.37356 14.6837 3.37809 14.7023C3.47123 15.085 4.61177 19.7683 5.256 22.3453C5.796 24.4693 7.704 25.8973 9.852 25.8973C10.104 25.8973 10.356 25.8853 10.608 25.8493C13.02 25.4893 14.808 23.3173 14.688 20.9053C14.532 18.1573 14.208 13.0453 14.196 12.9613C13.752 9.97331 10.944 7.90931 7.956 8.35331Z" fill="#2B313D"/>
<path fill-rule="evenodd" clip-rule="evenodd" d="M17.5794 9.94868C17.5799 9.94114 17.5806 9.93358 17.5818 9.92609C17.8871 7.92816 19.7558 6.54194 21.7681 6.84138C23.7683 7.14082 25.1588 9.01831 24.8777 10.9465C24.8766 10.9537 24.8753 10.9606 24.8736 10.9677C24.8604 11.0217 24.7961 11.2844 24.6948 11.6926C24.6446 11.8946 24.3724 11.9451 24.2365 11.7875C23.4767 10.9061 22.3974 10.3405 21.2641 10.1534C20.1336 9.9667 18.9403 10.1565 17.9556 10.7537C17.777 10.862 17.5313 10.7292 17.5447 10.5208C17.5651 10.2036 17.5768 9.99769 17.5794 9.94868ZM22.0501 5.05434C22.0462 5.0537 22.042 5.05338 22.0379 5.05338C22.034 5.05338 22.0301 5.05309 22.0262 5.05252C19.0555 4.61255 16.2538 6.67102 15.7936 9.73561C15.7926 9.74208 15.7921 9.74539 15.7916 9.75192C15.7782 9.95648 15.4531 14.9144 15.3121 17.6054C15.1801 20.0654 16.9441 22.1774 19.3921 22.5494C19.6441 22.5854 19.8961 22.5974 20.1361 22.5974C22.2961 22.5974 24.2041 21.1694 24.7441 19.0454C25.3962 16.4369 26.5456 11.6698 26.635 11.3244C26.6383 11.3112 26.6411 11.2985 26.6431 11.285C27.0864 8.30672 25.028 5.52412 22.0501 5.05434Z" fill="#2B313D"/>
</svg>
