<svg width="30" height="30" viewBox="0 0 30 30" fill="none" xmlns="http://www.w3.org/2000/svg">
<path fill-rule="evenodd" clip-rule="evenodd" d="M19.4532 4.5H18.0363H16.0121H10.5468C8.52263 4.5 6.90329 6.28302 7.0045 8.36321L7.30813 12.4245L8.01659 22.2311C8.1178 23.816 9.12989 25.0047 10.5468 25.4009C10.8504 25.5 11.1541 25.5 11.4577 25.5H18.2387C20.0604 25.5 21.5786 24.1132 21.781 22.2311L22.9955 8.36321C23.0967 6.28302 21.4774 4.5 19.4532 4.5ZM20.6677 12.5236C20.0604 12.8208 19.352 12.9198 18.6435 12.9198C17.9351 12.9198 17.2266 12.8208 16.6193 12.5236C16.4169 12.4245 16.2145 12.3255 16.1133 12.2264C16.0121 12.1274 15.9109 12.0283 15.7085 11.9292C15.4048 11.7311 15.2024 11.533 14.8988 11.3349C14.2915 11.0377 13.7855 10.8396 13.077 10.7406C11.7613 10.4434 10.4456 10.5425 9.23109 10.9387L8.92747 8.16509C8.92747 7.27358 9.63593 6.48113 10.5468 6.48113H15.7085H19.4532C20.3641 6.48113 21.0725 7.27358 20.9713 8.16509L20.6677 12.5236Z" fill="#2B313D"/>
</svg>
